<?xml version="1.0" standalone="no"?>
<!DOCTYPE svg PUBLIC "-//W3C//DTD SVG 20010904//EN"
 "http://www.w3.org/TR/2001/REC-SVG-20010904/DTD/svg10.dtd">
<svg version="1.0" xmlns="http://www.w3.org/2000/svg"
 width="1029.000000pt" height="1029.000000pt" viewBox="0 0 1029.000000 1029.000000"
 preserveAspectRatio="xMidYMid meet">

<g transform="translate(0.000000,1029.000000) scale(0.100000,-0.100000)"
fill="#000000" stroke="none">
<path d="M30 5140 l0 -5120 5120 0 5120 0 0 5120 0 5120 -5120 0 -5120 0 0
-5120z m5355 3931 c7 -12 -12 -24 -25 -16 -11 7 -4 25 10 25 5 0 11 -4 15 -9z
m-50 -31 c-3 -5 -11 -10 -16 -10 -6 0 -7 5 -4 10 3 6 11 10 16 10 6 0 7 -4 4
-10z m-704 -83 c-13 -13 -26 -3 -16 12 3 6 11 8 17 5 6 -4 6 -10 -1 -17z m664
-77 c-6 -10 -45 -1 -45 10 0 13 24 18 37 8 7 -6 11 -14 8 -18z m-1310 -1 c11
-17 -1 -21 -15 -4 -8 9 -8 15 -2 15 6 0 14 -5 17 -11z m920 -21 c-19 -11 -30
-5 -21 11 4 6 14 7 22 4 15 -5 14 -7 -1 -15z m55 -63 c0 -25 -23 -35 -35 -15
-10 16 2 40 20 40 9 0 15 -9 15 -25z m958 -24 c3 -8 -1 -12 -9 -9 -7 2 -15 10
-17 17 -3 8 1 12 9 9 7 -2 15 -10 17 -17z m227 9 c3 -5 1 -10 -4 -10 -6 0 -11
5 -11 10 0 6 2 10 4 10 3 0 8 -4 11 -10z m-2537 -31 c-2 -6 -8 -10 -13 -10 -5
0 -11 4 -13 10 -2 6 4 11 13 11 9 0 15 -5 13 -11z m2150 -98 c22 -14 10 -46
-19 -49 -28 -3 -65 30 -54 47 7 13 54 14 73 2z m-643 -62 c5 -5 -11 -9 -40 -9
-46 1 -49 2 -31 15 20 15 51 12 71 -6z m1093 3 c3 -9 -2 -13 -14 -10 -9 1 -19
9 -22 16 -3 9 2 13 14 10 9 -1 19 -9 22 -16z m-2968 -46 c0 -25 -35 -76 -52
-76 -6 0 -4 8 5 18 25 27 32 71 13 78 -9 3 -13 10 -10 15 10 16 44 -11 44 -35z
m3317 -43 c-7 -6 -46 10 -41 18 3 5 14 3 24 -3 11 -7 18 -13 17 -15z m-1828 3
c-2 -2 -22 -6 -44 -9 -27 -4 -35 -3 -25 3 14 9 79 15 69 6z m181 -19 c8 -3 39
-14 68 -23 30 -9 56 -23 59 -30 3 -9 18 -11 50 -7 36 4 44 2 41 -8 -6 -16 -83
-14 -218 5 l-85 12 0 31 c-1 29 1 31 35 29 19 -2 42 -5 50 -9z m100 2 c0 -5 5
-7 10 -4 6 3 10 1 10 -4 0 -6 -12 -11 -26 -11 -14 0 -23 4 -20 9 4 5 0 12 -6
14 -7 3 -3 6 10 6 12 1 22 -4 22 -10z m-405 -9 c-27 -12 -43 -12 -25 0 8 5 22
9 30 9 10 0 8 -3 -5 -9z m170 -20 c-3 -5 -12 -10 -18 -10 -7 0 -6 4 3 10 19
12 23 12 15 0z m-81 -21 c-7 -12 -44 -12 -44 0 0 5 6 11 13 14 17 6 38 -3 31
-14z m-474 1 c0 -5 -7 -10 -16 -10 -8 0 -12 5 -9 10 3 6 10 10 16 10 5 0 9 -4
9 -10z m170 -20 c0 -5 -7 -10 -16 -10 -8 0 -12 5 -9 10 3 6 10 10 16 10 5 0 9
-4 9 -10z m230 6 c0 -2 -7 -7 -16 -10 -8 -3 -12 -2 -9 4 6 10 25 14 25 6z
m2070 -11 c13 -16 3 -20 -24 -9 -9 3 -13 10 -10 15 8 13 20 11 34 -6z m-2135
-24 c-6 -5 -21 -12 -35 -15 -24 -7 -24 -6 -6 8 21 17 57 23 41 7z m2120 -9
c-3 -3 -11 0 -18 7 -9 10 -8 11 6 5 10 -3 15 -9 12 -12z m-2370 -2 c-3 -5 -12
-10 -20 -10 -8 0 -17 5 -20 10 -4 6 5 10 20 10 15 0 24 -4 20 -10z m170 -10
c-11 -5 -27 -9 -35 -9 -13 -1 -13 0 0 9 8 5 24 9 35 9 l20 0 -20 -9z m95 -16
c0 -2 -7 -4 -15 -4 -8 0 -15 4 -15 10 0 5 7 7 15 4 8 -4 15 -8 15 -10z m-270
-4 c0 -5 -4 -10 -10 -10 -5 0 -10 5 -10 10 0 6 5 10 10 10 6 0 10 -4 10 -10z
m506 -18 c-15 -18 -77 -42 -106 -42 -23 0 9 28 41 35 16 4 31 11 34 16 4 5 16
9 27 9 20 0 20 -1 4 -18z m-2021 -51 c3 -5 1 -12 -5 -16 -5 -3 -10 1 -10 9 0
18 6 21 15 7z m2485 -7 c0 -9 -5 -14 -12 -12 -18 6 -21 28 -4 28 9 0 16 -7 16
-16z m100 2 c0 -17 -27 -29 -35 -16 -4 6 -3 15 0 20 9 15 35 12 35 -4z m-420
-37 c0 -23 -4 -30 -15 -26 -8 4 -17 2 -20 -3 -10 -16 -45 -11 -45 5 0 22 37
55 60 55 16 0 20 -7 20 -31z m-2205 -9 c-10 -11 -21 -18 -23 -15 -3 3 3 12 14
20 27 20 30 18 9 -5z m4345 -6 c14 -7 18 -13 10 -13 -8 0 -31 9 -50 20 -26 15
-29 18 -10 13 14 -4 36 -13 50 -20z m82 -22 c2 -5 31 -25 66 -47 34 -21 62
-40 62 -42 0 -2 -36 15 -80 38 -44 22 -77 45 -74 50 7 11 21 12 26 1z m-2812
-19 c-1 -19 -19 -35 -34 -30 -26 10 -19 37 9 37 14 0 25 -3 25 -7z m490 -7 c0
-18 -49 -31 -63 -17 -8 8 -5 11 10 11 12 0 25 5 28 10 9 15 25 12 25 -4z
m1508 -24 c4 -26 -22 -31 -32 -6 -10 26 -7 36 12 32 9 -2 18 -13 20 -26z
m-1642 -11 c-3 -4 -25 -11 -48 -15 -24 -4 -65 -14 -91 -22 -27 -9 -50 -14 -53
-11 -6 6 145 55 174 56 13 1 21 -3 18 -8z m-552 -46 c4 -11 -2 -15 -26 -15
-26 0 -29 2 -18 15 7 8 18 15 25 15 7 0 15 -7 19 -15z m3231 -25 c10 -11 16
-20 13 -20 -3 0 -13 9 -23 20 -10 11 -16 20 -13 20 3 0 13 -9 23 -20z m126
-76 c17 -8 29 -18 26 -20 -3 -3 -22 4 -44 15 -21 11 -32 20 -25 21 7 0 27 -7
43 -16z m104 -45 c5 -5 -5 -4 -23 2 -17 6 -32 13 -32 16 0 7 43 -8 55 -18z
m105 -44 c36 -19 61 -34 55 -34 -5 0 -39 15 -75 34 -36 19 -60 34 -55 34 6 0
39 -15 75 -34z m-3805 -96 c4 -11 4 -23 1 -26 -3 -4 -6 1 -6 10 0 10 -4 17
-10 17 -5 0 -10 5 -10 10 0 18 19 10 25 -11z m1195 -175 c19 -3 42 -5 50 -5 8
-1 43 -12 77 -25 34 -13 77 -24 96 -24 37 0 139 -31 204 -61 23 -11 52 -19 65
-17 13 2 57 -7 98 -20 41 -13 100 -30 130 -39 30 -9 97 -41 148 -72 51 -31
111 -66 133 -77 22 -12 47 -32 56 -44 8 -12 20 -19 27 -17 15 6 42 -9 88 -48
36 -30 42 -42 39 -79 -1 -16 -5 -14 -23 10 -12 16 -26 32 -31 35 -5 4 -7 11
-3 17 7 11 -21 25 -35 16 -5 -3 -12 2 -15 11 -4 11 -10 12 -18 6 -8 -7 -21 -5
-40 4 -32 17 -36 18 -36 7 0 -4 21 -18 47 -32 68 -36 144 -97 197 -160 89
-104 116 -170 150 -355 21 -116 32 -151 77 -242 58 -119 58 -123 44 -344 -9
-134 1 -169 69 -229 101 -90 148 -144 199 -231 30 -52 87 -128 125 -170 87
-96 101 -131 74 -192 -11 -25 -25 -48 -31 -51 -14 -9 -14 -3 1 28 15 35 -8 61
-73 79 -44 13 -59 13 -141 -3 -51 -10 -95 -14 -98 -10 -3 5 -18 12 -34 16 -16
4 -31 15 -33 25 -3 10 -11 15 -19 12 -9 -3 -14 2 -14 17 0 16 -5 21 -22 18
-31 -4 -68 -79 -68 -139 0 -79 32 -113 162 -169 26 -11 50 -25 53 -30 4 -6 10
-8 15 -5 4 3 11 -23 15 -58 4 -34 16 -77 27 -94 20 -34 18 -62 -7 -83 -13 -11
-14 -8 -9 19 8 38 -5 40 -91 10 -139 -48 -146 -50 -143 -31 2 9 8 20 13 25 9
6 -10 26 -26 27 -10 0 -45 -34 -52 -50 -4 -8 -12 -22 -19 -31 -13 -18 -5 -48
14 -53 7 -2 28 -8 47 -14 28 -9 36 -9 45 4 19 26 92 28 142 3 55 -26 74 -54
77 -108 2 -70 -9 -71 -138 -8 -64 31 -118 57 -120 57 -8 0 15 -75 24 -78 17
-6 13 -42 -5 -42 -8 0 -13 -3 -11 -7 9 -14 -64 -13 -96 1 -18 7 -47 19 -65 26
-32 12 -32 13 -17 37 23 34 27 63 10 70 -8 3 -13 9 -10 14 3 4 12 6 19 3 7 -3
16 2 20 11 3 9 0 18 -9 21 -8 4 -13 10 -10 14 3 5 2 11 -3 14 -4 2 -14 -9 -21
-25 -7 -17 -15 -29 -16 -27 -7 7 20 88 29 88 5 0 1 6 -9 14 -11 8 -24 12 -28
9 -5 -3 -3 -9 4 -13 10 -7 10 -13 1 -32 -8 -14 -10 -15 -7 -4 3 10 0 25 -6 32
-6 8 -8 14 -5 14 4 0 2 9 -4 20 -6 11 -15 18 -19 15 -11 -6 -24 32 -21 63 1
12 -4 22 -10 22 -7 0 -9 -8 -5 -20 4 -11 2 -20 -4 -20 -6 0 -8 -8 -4 -17 4
-14 2 -14 -9 2 -20 28 -31 58 -17 49 8 -4 9 1 4 17 -4 13 -14 28 -22 32 -7 5
-10 13 -7 19 4 6 3 13 -2 17 -15 10 -35 61 -24 61 6 0 10 -4 10 -10 0 -5 4
-10 9 -10 6 0 6 12 1 32 -6 20 -6 36 0 43 12 14 3 25 -22 25 -10 0 -18 7 -18
15 0 17 16 20 25 5 4 -6 11 -8 16 -4 5 3 7 10 3 15 -3 5 -1 16 5 23 9 10 8 15
-4 20 -8 3 -15 15 -15 26 0 12 -4 18 -10 15 -14 -9 -12 29 2 43 9 9 9 15 0 24
-9 9 -12 8 -12 -7 0 -12 -3 -16 -10 -9 -11 11 -2 54 12 54 5 0 6 10 3 21 -5
13 -3 19 3 15 6 -4 9 10 8 36 -1 23 -8 44 -14 46 -7 2 -10 7 -8 10 2 4 -10 7
-27 7 -24 0 -32 4 -31 17 1 12 -6 16 -25 16 -48 -1 -53 1 -46 21 3 11 0 23 -6
27 -9 5 -10 2 -6 -9 8 -20 -6 -22 -25 -4 -16 14 -55 37 -63 37 -4 0 -3 -6 1
-12 7 -12 -19 7 -54 40 -7 6 -18 12 -23 12 -5 0 -9 7 -9 16 0 8 -4 12 -10 9
-5 -3 -10 -1 -10 4 0 6 -5 10 -12 9 -6 -2 -17 8 -24 20 -7 15 -14 20 -19 13
-4 -8 -10 -7 -19 1 -53 52 -79 69 -96 63 -10 -3 -22 0 -26 6 -5 9 -2 10 10 6
11 -4 15 -3 11 4 -4 5 -14 9 -23 8 -30 -3 -33 1 -22 20 5 11 7 22 3 24 -10 6
-34 -19 -26 -27 4 -3 1 -6 -5 -6 -7 0 -12 3 -12 8 0 4 -14 14 -32 21 -18 8
-27 16 -20 19 15 5 16 22 0 22 -13 0 -48 29 -48 41 0 5 8 5 17 2 15 -6 16 -5
3 9 -8 9 -16 12 -18 7 -2 -5 -8 -9 -13 -9 -6 0 -7 4 -4 10 3 6 -1 7 -9 4 -9
-3 -16 -1 -16 5 0 6 -7 11 -15 11 -8 0 -15 4 -15 8 0 5 20 7 45 6 27 -2 43 1
40 7 -4 5 -14 9 -23 9 -14 0 -15 2 -2 10 9 5 19 5 26 -1 8 -7 14 -6 19 1 5 8
11 8 21 -1 11 -9 14 -8 14 3 0 14 36 19 55 7 22 -14 75 -20 75 -9 0 6 13 2 30
-10 17 -12 30 -17 30 -12 0 5 -10 14 -22 20 -22 10 -22 11 -2 11 12 1 26 -9
33 -23 15 -27 67 -42 87 -25 10 8 22 7 45 -5 18 -9 35 -14 37 -11 3 3 0 5 -6
5 -7 0 -12 5 -12 10 0 6 18 8 48 3 26 -3 59 -6 75 -6 15 0 27 -4 27 -9 0 -5
-4 -7 -9 -3 -5 3 -12 1 -16 -5 -3 -5 2 -10 11 -10 16 0 16 -1 -2 -16 -18 -14
-16 -15 23 -11 40 5 45 2 73 -33 16 -21 30 -41 30 -44 0 -15 45 -66 57 -66 7
0 13 -4 13 -10 0 -11 30 -13 54 -4 9 3 16 12 16 19 0 7 7 15 15 19 8 3 15 12
15 20 0 8 13 17 30 21 41 9 47 23 13 31 -17 5 -28 3 -31 -4 -7 -21 -69 -13
-99 11 -15 13 -48 29 -71 36 -24 7 -42 14 -39 17 2 2 16 0 31 -6 40 -15 53
-12 59 10 3 13 14 20 28 20 12 0 30 7 40 15 16 15 16 13 11 -30 -5 -45 -4 -47
19 -43 18 2 23 9 22 25 -1 11 4 26 11 32 11 10 15 6 21 -18 4 -19 11 -28 19
-25 8 3 37 -17 65 -44 28 -27 56 -49 63 -50 7 -1 25 -4 41 -8 l27 -6 -27 41
c-14 22 -33 41 -40 41 -19 0 -16 30 5 46 10 8 12 13 5 14 -19 0 -16 38 8 99
13 35 16 56 10 60 -7 5 -6 25 4 61 8 30 12 65 8 79 l-6 25 -9 -24 c-8 -22 -9
-23 -23 -4 -8 10 -15 27 -15 37 0 19 -15 23 -25 6 -5 -6 -11 -4 -19 7 -15 20
-38 11 -29 -11 3 -8 0 -15 -6 -15 -7 0 -14 7 -17 15 -4 8 -11 12 -18 8 -6 -4
-17 -8 -24 -9 -25 -4 -25 -14 -3 -33 13 -11 20 -25 16 -30 -3 -6 -1 -11 6 -11
19 0 -33 -35 -80 -54 -50 -19 -70 -11 -52 23 10 17 9 21 -3 21 -10 0 -13 6
-10 15 4 8 1 15 -6 15 -6 0 -19 7 -28 16 -10 11 -17 13 -20 5 -5 -16 -22 -13
-22 4 0 15 -19 14 -67 -1 -7 -2 -13 0 -13 5 0 5 -18 5 -39 1 l-39 -7 11 26 c6
14 16 29 22 34 14 10 -36 48 -58 43 -10 -2 -25 6 -37 21 -25 32 -25 43 -1 43
10 0 22 7 25 16 4 12 1 14 -13 9 -11 -3 -23 0 -27 6 -5 9 -2 10 9 6 9 -3 19
-2 22 3 4 6 1 10 -4 10 -6 0 -11 10 -11 22 0 21 0 21 15 2 8 -10 15 -14 15 -8
0 18 -26 35 -44 28 -9 -4 -16 -3 -14 2 2 5 -10 23 -25 40 -15 17 -34 39 -42
50 -13 16 -16 17 -25 4 -5 -8 -10 -13 -11 -10 0 3 -2 13 -4 23 -2 9 1 17 6 17
17 0 -2 21 -28 31 -21 8 -23 12 -13 24 7 8 17 12 22 8 6 -3 8 0 6 8 -3 8 -16
13 -32 11 -14 -1 -26 2 -26 8 0 18 -24 37 -40 32 -13 -5 -13 -3 -1 11 12 15
11 17 -2 17 -21 0 -67 -21 -67 -31 0 -4 -10 -6 -21 -4 -27 5 -33 11 -20 20 6
3 11 2 11 -4 0 -6 7 -8 15 -5 8 4 15 12 15 19 0 7 6 15 13 18 9 4 9 7 -1 18
-11 12 -16 11 -30 -6 -9 -12 -25 -24 -34 -28 -10 -3 -26 -20 -36 -36 -25 -41
-62 -69 -93 -69 -22 0 -25 4 -23 34 3 26 -1 34 -14 34 -16 1 -16 1 1 11 24 14
22 32 -3 24 -12 -4 -20 -2 -20 5 0 7 -9 9 -22 6 -13 -3 -17 -3 -10 0 17 8 15
25 -2 18 -8 -3 -21 0 -29 8 -13 11 -12 15 7 26 16 10 16 12 3 8 -48 -15 -67
-17 -67 -8 0 5 17 17 38 26 l37 16 -35 -4 c-20 -2 -44 2 -54 10 -11 7 -23 11
-27 8 -5 -3 -18 2 -30 10 -20 14 -19 15 25 21 25 4 49 12 52 17 4 5 -9 7 -33
4 -21 -3 -30 -3 -20 0 11 4 16 12 13 21 -3 8 -6 22 -6 30 0 11 -7 14 -25 11
-14 -3 -28 -1 -31 3 -3 5 13 9 36 9 52 0 44 20 -8 21 -20 0 -46 5 -57 10 -16
7 -13 9 15 6 39 -5 60 0 60 14 0 5 -17 9 -39 9 -30 0 -40 4 -44 20 -4 14 -14
20 -34 20 -15 1 -39 7 -53 15 l-25 14 28 1 c15 0 27 5 27 10 0 6 10 10 23 10
18 0 16 3 -13 18 -25 12 -30 18 -17 20 9 2 14 8 11 14 -4 6 -1 14 5 18 14 8
-20 34 -59 43 -14 4 -19 4 -12 1 17 -8 15 -34 -2 -34 -8 0 -54 19 -102 42 -81
40 -87 41 -100 24 -7 -10 -17 -15 -22 -12 -13 8 -248 8 -290 0 -80 -16 -29
-23 137 -21 100 1 181 5 181 10 0 15 94 -19 148 -53 28 -18 28 -30 1 -30 -11
0 -29 -5 -40 -11 -17 -9 -18 -13 -7 -27 11 -14 10 -15 -7 -8 -48 19 -152 29
-200 19 l-50 -11 55 -1 c80 -2 139 -13 115 -21 -15 -5 -7 -13 42 -39 34 -18
72 -44 85 -58 l23 -26 -23 12 c-20 10 -109 41 -121 41 -2 0 3 -8 10 -17 13
-15 11 -16 -11 -10 -14 4 -56 7 -95 8 -48 0 -64 3 -50 9 17 7 16 9 -10 9 -17
1 -36 6 -43 13 -9 9 -22 3 -55 -30 -23 -23 -48 -42 -55 -42 -7 0 -12 -4 -12
-10 0 -5 7 -10 15 -10 8 0 15 -5 15 -11 0 -7 10 -5 26 6 42 27 37 11 -10 -27
-23 -20 -48 -33 -54 -29 -6 3 -15 26 -21 49 -9 41 -8 44 16 53 13 5 28 9 33 9
5 0 10 12 12 28 3 25 8 28 68 39 l65 12 -75 -4 c-41 -3 -91 -9 -110 -15 -19
-5 -39 -10 -44 -10 -21 0 17 26 62 43 26 9 35 16 21 14 -21 -3 -25 0 -21 15 4
16 0 17 -29 12 -70 -13 -140 -44 -181 -78 -48 -41 -51 -42 -69 -19 -12 15 -12
16 3 10 12 -4 15 -2 12 7 -3 7 2 16 10 19 9 4 16 12 16 19 0 7 15 19 33 27 17
8 34 17 37 21 3 4 18 13 35 21 16 8 28 18 26 23 -1 5 3 12 10 17 8 4 10 11 7
15 -10 10 -99 -23 -115 -43 -8 -10 -11 -12 -8 -5 5 10 0 13 -16 12 -88 -8 -63
13 106 85 l60 26 -50 -6 -50 -5 50 21 c28 11 77 26 110 34 56 13 58 13 20 14
-116 2 -293 -68 -395 -155 l-55 -48 50 52 c51 54 167 121 240 141 22 5 80 15
129 21 80 10 91 9 99 -6 13 -22 27 0 27 43 0 17 5 35 10 38 6 3 10 -3 10 -14
0 -13 7 -21 18 -22 111 -8 112 -8 112 8 0 12 3 13 15 3 8 -6 23 -9 33 -6 13 4
22 1 26 -9 4 -12 0 -14 -22 -10 -23 5 -22 3 8 -11 19 -9 50 -23 68 -31 33 -14
46 -31 15 -18 -47 18 -176 50 -240 59 -32 5 -43 3 -43 -7 0 -9 30 -17 93 -25
51 -7 117 -20 147 -28 30 -9 70 -18 89 -20 19 -2 38 -9 43 -16 6 -11 8 -11 8
0 0 14 -39 32 -56 25 -7 -2 -16 9 -22 25 -9 27 -8 29 14 24 20 -4 23 -1 17 13
-6 16 0 18 60 13 37 -3 67 -2 67 3 0 10 -57 21 -119 23 -25 0 -51 7 -56 14 -6
7 -28 19 -50 27 -61 22 -19 17 55 -6 35 -11 80 -20 100 -21 19 0 45 -7 57 -14
12 -8 35 -14 50 -13 25 0 26 1 8 9 -18 8 48 5 96 -4 12 -3 16 4 15 23 0 14 4
25 9 24 6 -1 30 -4 55 -7 101 -14 120 -18 120 -27 0 -6 4 -8 9 -5 5 4 20 2 33
-2 15 -6 32 -4 48 5 23 11 23 13 5 14 -11 1 -30 1 -42 0 -14 -1 -23 4 -23 13
0 7 -6 13 -12 12 -7 0 -42 13 -78 30 -79 38 -149 56 -188 48 -20 -4 -45 2 -80
20 -28 14 -59 26 -68 26 -25 0 -94 22 -94 30 0 4 19 3 43 -2 23 -5 58 -12 77
-14z m-2030 1 c7 -9 10 -18 7 -22 -8 -7 -37 15 -37 28 0 14 16 11 30 -6z m-30
-45 c-5 -17 -18 -42 -30 -57 -14 -18 -17 -30 -10 -37 16 -16 12 -37 -13 -60
-41 -38 -62 -82 -51 -107 10 -21 12 -20 72 30 34 28 62 56 62 60 0 5 9 11 19
14 13 3 19 13 18 26 -1 14 -6 20 -16 16 -11 -4 -11 -2 -2 9 17 20 112 59 122
49 15 -15 -9 -83 -40 -112 -16 -15 -32 -25 -33 -20 -2 5 -10 4 -18 -1 -12 -8
-13 -13 -3 -29 15 -24 -4 -89 -30 -105 -22 -14 -31 -2 -17 24 6 12 9 28 6 36
-11 29 -121 -32 -209 -115 -73 -70 -96 -125 -62 -153 9 -7 22 -18 29 -25 10
-9 23 -10 47 -3 51 15 46 4 -8 -16 -26 -10 -63 -30 -82 -45 -29 -23 -37 -26
-62 -17 -26 9 -35 6 -84 -31 -46 -35 -93 -61 -111 -61 -11 0 -2 39 11 50 8 7
15 16 15 21 0 5 -7 6 -15 3 -8 -4 -15 -3 -15 1 0 12 60 114 71 120 12 8 12
-17 -1 -51 -18 -47 -3 -38 36 23 21 32 50 72 65 88 29 33 43 65 29 65 -5 0
-14 -8 -19 -17 -6 -10 -11 -13 -11 -6 0 6 5 15 10 18 6 3 10 15 10 27 0 13 5
18 14 15 10 -4 13 -1 10 8 -8 19 75 172 114 208 18 18 44 52 56 77 28 53 51
75 89 84 15 3 27 11 27 16 0 6 4 10 9 10 6 0 6 -12 1 -30z m1813 -37 c-7 -2
-21 -2 -30 0 -10 3 -4 5 12 5 17 0 24 -2 18 -5z m147 -23 c25 -5 58 -12 74
-15 15 -3 26 -8 23 -11 -3 -3 -29 0 -58 6 -30 6 -77 15 -106 19 -29 4 -56 11
-60 15 -8 9 50 3 127 -14z m27 -36 c-3 -3 -12 -4 -19 -1 -8 3 -5 6 6 6 11 1
17 -2 13 -5z m240 -30 c-3 -3 -12 -4 -19 -1 -8 3 -5 6 6 6 11 1 17 -2 13 -5z
m-633 -23 c3 -4 -18 -9 -47 -9 -28 -1 -81 -4 -117 -6 l-65 -5 40 14 c44 15
181 20 189 6z m351 -11 c3 -6 -5 -10 -19 -10 -14 0 -28 5 -31 10 -3 6 5 10 19
10 14 0 28 -4 31 -10z m2400 0 c3 -5 -1 -10 -9 -10 -9 0 -16 5 -16 10 0 6 4
10 9 10 6 0 13 -4 16 -10z m-3022 -20 c-3 -11 -9 -20 -14 -20 -10 0 -12 24 -2
33 13 13 21 7 16 -13z m-2403 -24 c0 -3 -4 -8 -10 -11 -5 -3 -10 -1 -10 4 0 6
5 11 10 11 6 0 10 -2 10 -4z m5527 -61 c6 -14 7 -27 2 -31 -7 -4 -29 34 -29
52 0 13 17 0 27 -21z m-1343 -20 c11 -8 18 -17 15 -19 -2 -3 -20 9 -39 25 -34
29 -14 24 24 -6z m-2954 -36 c0 -18 -2 -19 -15 -9 -8 7 -15 16 -15 21 0 5 7 9
15 9 9 0 15 -9 15 -21z m-90 -41 c-11 -12 -20 -26 -20 -32 0 -6 -5 -5 -12 2
-9 9 -7 16 7 32 10 11 24 20 32 20 10 0 8 -6 -7 -22z m1043 -66 c-26 -33 -49
-58 -51 -56 -12 9 76 114 96 114 1 0 -19 -26 -45 -58z m111 42 c3 -8 2 -12 -4
-9 -6 3 -10 10 -10 16 0 14 7 11 14 -7z m761 -44 c8 -13 -5 -13 -25 0 -13 8
-13 10 2 10 9 0 20 -4 23 -10z m3 -33 c13 -11 17 -37 4 -37 -5 0 -18 13 -30
30 -19 25 -20 29 -5 23 10 -3 24 -10 31 -16z m2732 7 c0 -2 -7 -4 -15 -4 -8 0
-15 4 -15 10 0 5 7 7 15 4 8 -4 15 -8 15 -10z m-3835 -24 c-9 -16 -18 -30 -21
-30 -2 0 2 14 11 30 9 17 18 30 21 30 2 0 -2 -13 -11 -30z m255 1 c0 -5 -7
-11 -14 -14 -10 -4 -13 -1 -9 9 6 15 23 19 23 5z m80 -15 c0 -3 -4 -8 -10 -11
-5 -3 -10 -1 -10 4 0 6 5 11 10 11 6 0 10 -2 10 -4z m-281 -70 c-29 -49 -34
-46 -9 5 12 23 24 39 26 36 3 -2 -5 -21 -17 -41z m111 -6 c0 -4 -6 -12 -13
-18 -10 -8 -13 -7 -14 7 -1 10 5 18 13 18 8 0 14 -4 14 -7z m837 -25 c22 -13
29 -23 25 -40 -4 -23 -39 -35 -107 -35 -17 0 -55 -6 -85 -14 -70 -17 -140 -26
-140 -17 0 14 112 73 127 67 9 -4 19 -2 23 4 3 5 25 11 48 13 23 1 42 6 42 10
0 5 -40 7 -89 5 -96 -3 -103 0 -38 19 56 16 157 10 194 -12z m330 -41 c-3 -3
-12 -4 -19 -1 -8 3 -5 6 6 6 11 1 17 -2 13 -5z m2143 -54 c18 -11 16 -12 -32
-15 -26 -1 -38 2 -38 11 0 16 47 19 70 4z m-2617 -20 c17 0 19 -2 8 -9 -8 -5
-11 -16 -8 -24 4 -10 -2 -17 -16 -21 -34 -9 -42 -7 -66 13 l-22 20 28 15 c15
8 34 13 41 11 8 -3 23 -5 35 -5z m-213 -20 c0 -5 -7 -7 -15 -4 -8 4 -15 1 -15
-7 0 -7 -3 -9 -6 -6 -9 9 16 38 27 31 5 -3 9 -9 9 -14z m2973 -7 c16 -8 27
-17 24 -19 -2 -3 -26 7 -53 21 -27 14 -38 23 -24 19 14 -3 38 -13 53 -21z
m-2957 -58 c-6 -11 -12 -22 -14 -25 -10 -15 -19 27 -10 46 8 17 13 20 23 11 9
-9 9 -17 1 -32z m355 4 c19 -19 18 -19 -14 -18 -17 0 -45 -2 -62 -4 -16 -2
-21 -2 -10 0 46 11 31 19 -30 17 -94 -5 -85 20 10 28 49 5 87 -4 106 -23z
m343 11 c-25 -10 -58 -13 -104 -9 -24 2 -15 4 30 9 95 10 97 10 74 0z m-2810
-54 c-9 -15 -19 -25 -21 -22 -3 2 3 16 13 30 9 15 19 25 21 22 3 -2 -3 -16
-13 -30z m2256 -1 c-13 -14 -25 -23 -27 -21 -5 5 40 53 46 49 3 -2 -6 -14 -19
-28z m367 19 c-3 -3 -12 -4 -19 -1 -8 3 -5 6 6 6 11 1 17 -2 13 -5z m191 -13
c2 -1 1 -5 -2 -10 -3 -5 -14 -7 -24 -5 -9 3 -46 9 -82 14 l-65 9 85 -4 c47 -2
86 -4 88 -4z m-313 -51 l20 -9 -20 0 c-11 0 -27 4 -35 9 -13 9 -13 10 0 9 8 0
24 -4 35 -9z m697 -10 c-12 -11 -27 -20 -34 -20 -7 0 1 9 17 20 38 25 45 25
17 0z m-107 -35 c-16 -13 -36 -29 -42 -35 -7 -6 -13 -7 -13 -3 0 10 62 62 75
63 6 0 -3 -11 -20 -25z m170 5 c3 -5 -1 -10 -10 -10 -9 0 -13 5 -10 10 3 6 8
10 10 10 2 0 7 -4 10 -10z m-973 -51 c-9 -25 3 -89 17 -89 9 0 9 -95 0 -104
-12 -12 -50 135 -44 167 12 59 17 69 26 60 6 -6 6 -19 1 -34z m928 22 c0 -5
-7 -14 -15 -21 -16 -14 -18 -10 -9 14 6 17 24 22 24 7z m66 -7 c-3 -9 -6 -18
-6 -20 0 -2 -7 -4 -16 -4 -8 0 -12 -4 -9 -10 3 -5 -1 -10 -9 -10 -32 0 -27 27
9 48 28 16 38 15 31 -4z m-3289 -14 c-3 -11 -1 -20 4 -20 5 0 9 4 9 9 0 5 9
11 20 14 20 5 20 5 1 -26 -10 -18 -45 -84 -77 -147 -31 -63 -66 -127 -76 -142
-23 -33 -25 -66 -3 -48 19 16 19 7 1 -33 -72 -160 -121 -320 -131 -422 -4 -33
-8 -70 -11 -82 -2 -13 0 -23 6 -23 5 0 10 10 11 23 1 13 4 7 10 -16 8 -32 6
-43 -11 -64 -13 -16 -20 -41 -20 -67 0 -22 -3 -52 -7 -65 l-6 -24 -18 24 -17
23 -16 -38 c-20 -48 -20 -75 0 -97 14 -15 14 -25 0 -105 -9 -49 -16 -101 -16
-117 0 -24 -3 -27 -25 -21 -24 6 -25 5 -25 -46 0 -53 0 -53 20 -35 11 10 22
16 24 14 2 -2 8 -29 13 -59 8 -53 9 -55 43 -60 32 -5 35 -8 38 -42 2 -21 11
-43 20 -50 9 -7 18 -26 20 -43 9 -100 29 -196 63 -317 48 -167 66 -211 81
-202 8 5 9 1 4 -11 -3 -10 -1 -25 7 -34 7 -9 28 -56 46 -106 52 -140 202 -429
271 -520 19 -26 45 -61 57 -79 13 -17 26 -36 30 -42 15 -20 33 -49 53 -87 12
-21 29 -41 38 -44 9 -4 26 -18 37 -32 42 -55 134 -147 225 -225 52 -44 100
-86 105 -92 30 -34 280 -211 367 -260 76 -43 88 -38 16 6 -64 40 -340 245
-423 315 -162 136 -369 386 -493 592 -169 282 -243 445 -312 679 -22 76 -43
146 -45 155 -4 12 2 18 18 21 24 5 25 2 30 -71 14 -193 104 -415 306 -754 194
-328 420 -567 781 -827 132 -94 330 -200 330 -175 0 15 14 24 44 29 27 4 29
15 4 25 -61 23 -338 164 -338 172 0 14 13 10 40 -11 14 -11 28 -20 32 -20 4 0
34 -13 66 -28 38 -19 76 -29 108 -29 43 -1 168 -40 241 -75 11 -6 26 -7 32 -4
6 4 11 0 11 -8 0 -9 12 -18 28 -21 15 -4 38 -9 52 -12 31 -8 38 -9 125 -20
100 -13 225 -5 335 22 20 5 28 1 42 -24 15 -28 15 -30 -5 -48 -12 -11 -34 -27
-48 -35 -28 -18 -171 -62 -231 -73 -58 -9 -45 -20 19 -18 42 2 52 0 38 -6 -17
-8 -15 -10 13 -10 19 -1 31 -5 27 -11 -3 -5 4 -9 17 -9 54 2 128 -14 128 -28
0 -7 8 -16 18 -20 9 -3 25 -13 34 -20 9 -8 21 -12 26 -9 6 3 8 -2 5 -14 -4
-16 0 -20 21 -20 14 0 26 5 26 10 0 6 -5 10 -11 10 -5 0 -8 4 -4 9 3 5 -5 17
-17 25 -21 15 -21 16 -3 36 16 18 16 20 2 20 -34 0 -16 20 23 26 22 4 43 10
46 15 8 14 38 -2 71 -40 l31 -36 49 16 c26 9 88 29 137 45 112 34 96 45 -59
37 -89 -4 -114 -2 -130 10 -19 15 -19 16 15 25 l35 10 -44 1 c-53 1 -45 19 11
23 32 3 45 18 15 18 -7 0 -24 6 -39 14 -15 8 -36 12 -48 9 -14 -4 -20 -1 -20
11 0 28 -27 29 -72 4 l-43 -24 -1 28 c-1 16 -9 36 -18 46 -19 22 -20 32 -3 32
7 0 18 -9 25 -21 12 -19 19 -20 67 -14 46 5 54 4 59 -12 5 -16 15 -18 76 -15
47 3 70 1 70 -7 0 -6 -11 -11 -25 -11 -28 0 -34 -17 -7 -22 33 -7 82 4 82 18
0 8 -4 14 -9 14 -12 0 -8 50 4 50 6 0 2 7 -7 14 -10 7 -15 16 -12 19 3 3 0 16
-7 28 -9 17 -9 24 0 27 15 5 14 52 -1 52 -9 0 -8 4 2 10 10 6 11 10 3 10 -23
0 -14 18 15 29 l27 11 -27 -4 c-31 -4 -40 20 -10 27 13 3 11 6 -10 15 -29 12
-40 26 -13 16 8 -4 15 -1 15 5 0 6 -8 11 -17 11 -12 0 -14 3 -6 8 15 9 12 44
-4 55 -18 11 -16 28 2 21 18 -7 20 7 3 24 -10 10 -10 15 2 22 12 8 10 10 -10
11 -22 2 -23 2 -3 6 36 7 36 30 -1 26 -17 -2 -24 0 -16 3 8 3 26 11 39 17 19
9 25 9 28 0 3 -7 11 -13 19 -13 21 0 9 16 -26 34 -28 13 -30 13 -30 -4 0 -14
-5 -18 -16 -13 -11 4 -12 8 -4 13 16 10 4 30 -18 30 -12 0 -9 7 13 25 18 14
24 24 16 25 -12 0 -12 3 -3 12 17 17 15 45 -5 57 -23 12 -11 25 16 16 14 -4
21 -15 21 -30 0 -17 12 -31 43 -49 23 -14 38 -26 34 -26 -5 0 -1 -7 8 -16 11
-11 14 -25 10 -44 -3 -16 -2 -31 3 -34 5 -3 13 -27 17 -53 3 -27 13 -58 21
-70 8 -12 9 -23 4 -25 -6 -2 -13 -28 -16 -58 -3 -30 -10 -77 -14 -105 -7 -40
-5 -52 7 -62 12 -10 19 -9 31 3 12 13 13 17 3 24 -17 10 2 22 23 14 11 -4 16
0 16 12 0 11 7 28 15 38 8 11 15 32 15 47 0 15 4 31 10 34 6 3 10 17 10 30 0
13 5 27 10 30 6 3 10 15 10 26 0 11 15 44 33 75 17 30 42 73 53 95 16 29 24
37 30 27 13 -20 16 -194 6 -273 l-9 -70 -2 65 c-1 36 -6 72 -11 80 -9 13 -10
13 -11 0 -1 -8 -1 -21 0 -28 1 -8 -3 -19 -9 -27 -8 -9 -6 -14 5 -19 9 -3 14
-10 10 -15 -3 -6 -13 -7 -21 -4 -11 4 -15 0 -12 -13 2 -10 -3 -19 -9 -19 -12
0 -59 -75 -48 -75 2 0 -4 -16 -15 -35 -24 -43 -25 -55 -5 -55 8 0 15 -5 15
-12 0 -6 -3 -8 -7 -5 -7 8 -33 -11 -33 -24 0 -5 7 -9 16 -9 13 0 14 -3 5 -14
-10 -12 -6 -14 19 -12 17 1 35 7 38 13 4 5 19 13 34 17 28 6 33 25 14 55 -7
11 -4 13 11 9 16 -4 19 -2 16 13 -8 31 12 22 24 -11 8 -21 16 -28 27 -24 9 3
16 1 16 -4 0 -6 5 -23 11 -39 10 -27 11 -27 25 -9 8 11 14 32 14 47 0 15 5 31
10 34 6 4 10 -5 10 -19 0 -14 4 -26 9 -26 5 0 11 -9 14 -20 5 -19 6 -19 38 -3
19 9 46 24 61 35 27 19 84 25 73 8 -3 -5 -16 -10 -29 -10 -26 0 -69 -39 -45
-41 8 -1 20 0 28 1 9 1 12 -4 8 -14 -8 -19 -8 -19 31 -5 16 5 32 19 35 31 5
17 12 20 49 16 37 -5 55 1 136 46 52 28 121 66 155 84 79 43 100 61 87 77 -5
6 -20 11 -32 9 -13 -1 -26 -3 -30 -3 -5 -1 -8 -8 -8 -17 0 -9 -6 -14 -12 -11
-7 2 -24 0 -38 -5 -51 -19 -4 11 96 61 111 55 144 81 101 81 -13 0 -44 -7 -68
-15 -39 -14 -45 -14 -55 0 -6 8 -17 15 -25 15 -11 0 -11 2 1 10 12 8 13 12 2
19 -10 6 -1 17 34 40 50 33 52 37 8 21 -37 -14 -64 6 -35 26 23 16 35 55 15
47 -8 -3 -14 -9 -14 -15 0 -5 -4 -7 -10 -3 -10 6 -41 -9 -83 -43 -35 -27 -50
-28 -42 -2 4 13 2 20 -7 20 -7 0 1 9 17 20 19 13 39 18 53 15 17 -4 22 -2 16
6 -5 9 -2 10 9 6 9 -3 19 -2 23 4 3 6 12 8 20 5 8 -3 14 -2 14 3 0 11 46 31
71 31 11 0 18 -4 15 -9 -4 -5 11 -7 34 -4 44 6 133 -14 124 -28 -3 -5 -13 -5
-24 1 -21 11 -41 5 -90 -28 l-35 -24 30 8 c17 5 44 8 60 8 17 -1 32 2 35 7 3
4 11 0 18 -11 10 -16 9 -18 -3 -14 -8 4 -15 1 -15 -5 0 -7 7 -14 16 -18 13 -5
13 -7 2 -14 -8 -5 1 -8 25 -7 46 2 57 -8 31 -27 -11 -7 -26 -31 -32 -52 -11
-37 -13 -38 -52 -35 -26 3 -40 0 -40 -8 0 -6 5 -8 10 -5 6 3 10 1 10 -4 0 -6
9 -11 20 -11 24 0 24 1 4 -39 -18 -36 -13 -64 11 -55 11 5 15 -1 15 -25 0 -38
-12 -40 -34 -5 -22 33 -56 29 -74 -9 -7 -15 -25 -35 -40 -44 -15 -9 -51 -32
-80 -50 -49 -32 -54 -33 -87 -22 -38 14 -44 24 -20 33 17 6 21 36 4 36 -5 0
-8 -4 -4 -9 3 -5 1 -12 -5 -16 -5 -3 -10 1 -10 9 0 12 -13 7 -50 -19 -27 -19
-58 -35 -67 -36 -11 0 -13 -3 -5 -6 6 -2 12 -15 12 -28 0 -38 23 -48 54 -24
31 24 36 53 7 44 -18 -5 -36 16 -24 29 11 11 24 6 17 -6 -4 -7 -3 -8 5 -4 6 4
23 0 37 -9 21 -14 24 -21 19 -47 -4 -17 -16 -46 -27 -65 -21 -34 -18 -57 4
-35 17 17 38 15 32 -3 -4 -9 0 -15 10 -15 9 0 16 -7 16 -15 0 -8 -4 -15 -10
-15 -5 0 -10 -4 -10 -10 0 -5 7 -7 15 -4 17 7 21 -11 5 -21 -8 -5 -7 -11 0
-20 9 -11 16 -12 31 -2 21 13 26 37 8 37 -13 0 25 63 40 68 6 2 11 -8 11 -21
0 -14 -7 -27 -15 -29 -9 -2 -12 -8 -6 -16 7 -12 14 -11 39 2 46 24 52 20 52
-27 0 -34 -7 -54 -32 -87 -87 -116 -90 -122 -84 -162 6 -38 2 -43 -31 -39 -6
1 -26 -12 -44 -29 -19 -16 -39 -30 -46 -30 -15 0 -15 -2 -7 -24 3 -9 13 -16
21 -16 8 0 11 -4 8 -10 -8 -14 -2 -13 47 7 69 27 140 74 134 89 -4 12 75 74
95 74 13 0 31 39 24 50 -4 6 -19 1 -38 -12 -28 -20 -30 -20 -17 -3 8 11 39 47
70 80 30 34 73 83 96 110 24 29 43 44 47 38 4 -6 0 -18 -8 -26 -20 -21 -19
-22 11 -25 14 -1 23 2 20 7 -3 4 3 16 14 26 11 10 20 24 20 32 0 19 -28 27
-45 13 -24 -20 -19 8 10 54 15 25 36 44 56 50 35 12 51 36 25 36 -24 0 -19 18
7 26 39 12 150 96 225 171 61 61 72 77 66 96 -10 33 -22 45 -55 52 -16 4 -29
9 -29 13 0 12 34 42 47 42 8 0 19 13 24 29 10 28 39 51 39 31 0 -6 -4 -10 -9
-10 -19 0 -22 -39 -6 -75 8 -21 15 -47 15 -59 1 -18 7 -14 40 24 45 51 51 68
16 45 -23 -15 -23 -15 -30 32 -12 80 -8 116 17 135 12 9 20 18 17 20 -31 20
-57 28 -92 28 -37 1 -46 5 -68 35 -25 34 -40 44 -40 25 0 -14 -54 -12 -68 2
-15 15 -16 32 -1 22 8 -4 9 0 4 15 -4 14 -2 21 7 21 11 0 11 2 0 9 -10 6 -7
12 11 24 30 20 61 12 82 -19 8 -13 22 -24 30 -24 8 0 15 -6 15 -14 0 -20 57
-59 71 -50 8 4 9 3 5 -5 -8 -12 1 -16 56 -26 33 -5 38 -3 50 21 15 33 36 42
44 20 6 -16 -63 -99 -76 -91 -4 3 -13 -1 -19 -9 -8 -10 -7 -30 5 -79 9 -37 20
-67 23 -67 4 0 26 21 50 46 31 33 40 49 32 57 -6 6 -11 20 -10 32 1 17 2 16
13 -7 l12 -27 24 22 c14 12 32 22 40 22 10 0 14 8 12 28 -1 15 2 27 7 27 6 0
8 -7 5 -15 -4 -8 -2 -15 4 -15 6 0 15 13 20 29 9 25 8 29 -4 24 -8 -3 -26 8
-43 26 -33 35 -43 38 -61 16 -7 -8 -17 -15 -22 -15 -15 0 2 43 29 72 25 26 25
27 7 51 -11 13 -27 23 -37 21 -10 -1 -16 3 -14 9 2 7 14 13 26 15 16 3 24 -2
28 -17 7 -27 10 -27 42 8 20 22 34 28 50 24 11 -3 28 0 36 7 12 10 19 10 27 2
9 -9 5 -19 -15 -40 -15 -15 -27 -36 -27 -45 0 -30 -15 -18 -17 14 -4 56 -17
53 -38 -8 -13 -38 -13 -38 14 -44 15 -3 33 -9 40 -13 17 -11 8 -74 -18 -124
-12 -23 -21 -49 -21 -59 0 -15 -2 -16 -10 -3 -13 20 -13 4 1 -21 8 -16 7 -26
-6 -45 -9 -14 -20 -22 -25 -19 -6 4 -10 1 -10 -5 0 -6 -17 -34 -38 -63 -21
-29 -43 -63 -49 -77 -9 -23 -8 -26 10 -27 11 -1 29 3 40 9 17 9 19 8 14 -6 -4
-10 -1 -16 9 -16 12 0 12 -4 -2 -32 l-17 -33 28 28 c15 15 39 27 52 27 21 0
23 -2 12 -22 -7 -13 -28 -42 -48 -66 -39 -46 -53 -109 -22 -97 13 5 14 4 3 -6
-6 -7 -12 -16 -12 -20 0 -9 49 1 56 12 11 18 22 8 19 -18 -3 -34 -17 -66 -51
-116 l-26 -39 31 7 c18 4 31 3 31 -3 0 -11 -76 -82 -88 -82 -4 0 -33 -25 -65
-55 -33 -31 -72 -62 -89 -71 -16 -8 -27 -18 -24 -22 4 -3 -21 -23 -54 -44 -49
-32 -59 -42 -51 -55 6 -12 4 -21 -7 -31 -16 -13 -16 -13 0 -8 12 3 15 1 11 -9
-4 -13 -1 -13 28 -1 27 11 35 11 46 1 7 -8 13 -16 13 -18 0 -5 -177 -117 -185
-117 -2 0 -21 -12 -42 -26 -21 -14 -68 -41 -105 -60 -38 -19 -68 -37 -68 -40
0 -8 19 -2 103 29 92 35 85 15 -10 -28 -78 -36 -93 -52 -33 -35 18 5 43 7 56
4 13 -4 57 8 112 30 94 38 106 41 98 27 -7 -10 -112 -61 -127 -61 -6 0 -17 -7
-26 -15 -9 -9 -23 -13 -34 -10 -11 4 -19 2 -19 -5 0 -6 -4 -9 -9 -6 -5 3 -42
-7 -82 -23 -41 -16 -139 -53 -219 -81 -80 -29 -150 -56 -156 -61 -58 -47 -443
-135 -491 -113 -10 4 -34 9 -53 10 -19 1 -73 9 -120 17 -81 14 -83 14 -33 16
57 1 85 20 31 22 -30 1 -29 2 17 15 28 8 68 18 90 23 22 5 67 16 100 24 33 8
81 18 108 22 43 6 47 4 47 -14 0 -12 0 -24 1 -28 0 -5 -33 -16 -73 -25 l-73
-18 60 5 c74 5 185 34 293 76 81 30 102 56 37 43 -26 -4 -36 -2 -47 14 -17 26
-54 23 -173 -11 -83 -25 -314 -77 -395 -91 -19 -3 -42 -1 -50 4 -13 8 -13 10
2 10 9 0 18 4 20 8 3 7 78 32 163 54 22 5 65 17 95 26 88 27 26 26 -78 -1
-119 -31 -164 -24 -61 10 68 22 129 48 222 94 22 10 45 19 52 19 8 0 16 4 20
9 8 14 -94 5 -144 -13 -55 -20 -68 -12 -15 9 125 50 168 86 62 51 -149 -49
-214 -66 -301 -81 -54 -9 -104 -18 -110 -20 -7 -3 -50 -10 -97 -15 -47 -6
-137 -18 -200 -27 -66 -9 -171 -16 -246 -15 -147 2 -351 25 -368 42 -8 8 4 9
44 3 61 -9 118 -8 265 4 l100 8 -79 8 c-43 4 -104 7 -134 7 -31 0 -53 2 -50 5
3 3 47 6 98 6 58 1 87 5 79 10 -11 7 -9 9 6 7 11 0 43 0 70 2 l50 3 -40 6
c-32 5 -16 9 80 18 66 7 162 22 214 33 103 23 283 82 318 106 12 7 30 14 39
14 9 0 53 18 97 41 45 22 102 50 126 62 24 12 46 29 49 37 3 8 12 23 19 32 17
19 10 38 -13 38 -8 0 -13 -4 -9 -9 6 -11 -10 -23 -34 -26 -20 -2 -108 -42
-141 -65 -14 -9 -41 -22 -60 -30 -19 -7 -40 -19 -46 -26 -8 -10 -74 -44 -158
-83 -5 -2 -6 4 -2 14 5 14 2 16 -11 10 -77 -30 -230 -68 -371 -91 -104 -17
-269 -15 -402 4 -47 6 -32 9 101 15 165 7 228 17 404 66 122 34 314 122 280
129 -11 2 -25 8 -32 14 -7 6 -14 5 -18 -2 -4 -7 -16 -10 -26 -7 -11 3 -19 2
-19 -2 0 -17 -241 -80 -385 -101 -120 -17 -397 -23 -460 -10 -53 11 -127 50
-96 50 7 0 9 5 6 10 -4 6 8 10 29 10 19 0 38 5 41 10 3 6 -2 10 -12 10 -10 0
-24 4 -32 9 -9 6 32 7 107 4 121 -5 172 -1 172 16 0 14 -58 31 -105 31 -71 0
-165 12 -159 21 9 15 -38 31 -71 25 -25 -5 -48 1 -101 29 -51 26 -62 29 -41
12 15 -13 27 -25 27 -29 0 -12 -75 -14 -87 -2 -7 7 -58 27 -114 44 -56 18
-113 39 -128 46 -28 15 -51 17 -75 8 -21 -8 -20 -23 2 -47 16 -20 16 -20 -3
-14 -18 6 -18 5 3 -12 12 -11 22 -23 22 -28 0 -5 31 -38 70 -74 38 -35 70 -70
70 -77 0 -7 -15 -19 -34 -27 -19 -8 -38 -19 -41 -25 -10 -16 -65 28 -65 51 0
24 10 24 55 -2 33 -20 38 -20 52 -6 15 14 12 19 -27 54 -23 21 -73 68 -110
106 -68 66 -88 75 -147 68 -16 -2 -17 16 -2 21 12 4 -15 67 -33 79 -6 4 -5 14
3 27 17 27 82 37 117 18 57 -32 249 -115 301 -130 109 -32 86 -10 -32 30 -99
34 -119 42 -227 98 -176 90 -316 177 -465 290 -160 121 -414 356 -486 451 -13
17 -59 73 -102 125 -44 52 -87 104 -96 115 -45 55 -174 266 -215 352 -6 13
-15 23 -19 23 -5 0 12 -38 37 -84 48 -88 53 -102 35 -90 -8 5 -8 1 0 -14 6
-11 11 -26 11 -33 0 -16 -113 167 -160 259 -12 23 -25 40 -30 37 -4 -3 -11 6
-14 20 -5 21 -36 37 -36 19 0 -32 126 -281 247 -486 2 -5 1 -8 -4 -8 -9 1 -24
22 -158 221 -87 129 -197 348 -212 420 -3 16 -10 32 -14 35 -5 3 -9 14 -9 25
0 11 -16 37 -36 57 l-36 37 32 13 c18 7 33 12 34 10 1 -2 14 -39 28 -83 40
-124 65 -175 81 -169 8 3 20 -2 27 -11 30 -36 43 6 14 49 -9 15 -16 54 -19
103 -2 43 -8 90 -14 103 -19 47 -50 206 -66 344 -14 111 -16 193 -11 410 6
317 14 387 76 680 28 134 64 262 78 276 2 3 2 -12 -2 -32 -9 -50 5 -48 27 3
19 44 15 68 -9 48 -21 -18 -17 -5 26 81 29 57 39 87 34 105 -3 14 1 37 11 57
48 91 65 130 65 146 0 21 47 90 94 139 37 38 40 39 33 13z m1761 -50 c0 -22
-1 -22 -8 5 -4 17 -8 39 -8 50 0 16 2 15 8 -5 4 -14 8 -36 8 -50z m471 -4 c2
-45 -6 -27 -12 29 -4 34 -3 42 3 25 4 -14 8 -38 9 -54z m951 35 c0 -5 -7 -12
-16 -15 -14 -5 -15 -4 -4 9 14 17 20 19 20 6z m2038 -20 c-2 -9 -11 -17 -21
-19 -21 -4 -35 27 -17 38 19 12 42 0 38 -19z m229 3 c-9 -9 -28 6 -21 18 4 6
10 6 17 -1 6 -6 8 -13 4 -17z m-2107 6 c-7 -4 -10 -12 -6 -18 3 -6 -7 -9 -26
-8 -17 1 -33 7 -36 14 -5 16 15 16 21 0 4 -9 6 -8 6 2 1 9 12 16 28 17 16 1
21 -2 13 -7z m-3200 -85 c-17 -25 -33 -45 -36 -45 -7 0 3 17 34 58 36 48 38
39 2 -13z m1415 15 c3 -5 1 -10 -4 -10 -6 0 -11 5 -11 10 0 6 2 10 4 10 3 0 8
-4 11 -10z m3835 -91 c0 -5 -4 -9 -10 -9 -5 0 -10 7 -10 16 0 8 5 12 10 9 6
-3 10 -10 10 -16z m-5245 1 c5 -9 -15 -50 -25 -50 -3 0 -6 14 -7 30 -2 29 18
42 32 20z m2239 -15 c-7 -16 -24 -21 -24 -6 0 8 7 13 27 20 1 1 0 -6 -3 -14z
m1086 -25 c0 -5 -2 -10 -4 -10 -3 0 -8 5 -11 10 -3 6 -1 10 4 10 6 0 11 -4 11
-10z m-1064 -25 c11 -23 10 -24 -7 -14 -10 5 -19 16 -19 24 0 23 14 18 26 -10z
m2942 -142 c47 -130 75 -242 70 -274 -6 -31 -11 -17 -34 91 -10 47 -35 137
-56 200 -58 175 -44 164 20 -17z m-1416 -120 c8 -10 18 -30 22 -44 7 -31 -6
-39 -64 -39 -20 0 -57 -7 -80 -15 -60 -21 -73 -20 -58 5 7 11 18 18 23 16 6
-2 12 7 13 21 3 34 10 43 46 59 43 18 80 17 98 -3z m-1232 -15 c0 -16 -3 -19
-11 -11 -6 6 -8 16 -5 22 11 17 16 13 16 -11z m3405 11 c11 -17 0 -20 -21 -4
-17 13 -17 14 -2 15 9 0 20 -5 23 -11z m-4038 -5 c-3 -3 -12 -4 -19 -1 -8 3
-5 6 6 6 11 1 17 -2 13 -5z m493 -19 c16 -8 37 -12 47 -9 16 5 16 4 1 -5 -12
-8 -27 -6 -60 9 -23 11 -37 20 -30 20 7 0 26 -7 42 -15z m705 -25 c18 -20 18
-21 -1 -14 -10 4 -28 13 -39 21 -19 13 -19 13 1 13 12 0 29 -9 39 -20z m-3238
-47 c-21 -21 -27 -15 -16 16 7 19 12 22 21 13 9 -9 8 -16 -5 -29z m2091 12
c59 -14 135 -37 170 -51 68 -29 163 -95 144 -102 -7 -2 -12 -11 -12 -19 0 -12
-3 -13 -14 -4 -8 7 -31 9 -58 6 -38 -5 -51 -1 -84 23 -50 36 -92 55 -179 82
-74 22 -119 49 -97 57 6 3 12 11 12 19 0 18 -9 18 118 -11z m822 16 c0 -6 -4
-13 -10 -16 -5 -3 -10 1 -10 9 0 9 5 16 10 16 6 0 10 -4 10 -9z m601 -17 c23
-14 39 -28 36 -30 -5 -5 -87 45 -87 52 0 8 12 3 51 -22z m-828 -42 c9 -8 16
-17 15 -20 -3 -15 15 -42 28 -42 8 0 14 -5 14 -10 0 -12 -34 3 -62 27 -12 11
-21 12 -35 4 -17 -10 -17 -10 0 -11 11 0 17 -8 17 -21 0 -14 5 -19 14 -16 13
5 36 -10 36 -24 0 -12 -41 12 -90 52 -25 20 -56 42 -68 48 -13 7 -21 15 -19
18 3 2 25 -7 49 -21 28 -16 48 -22 57 -16 11 6 7 13 -20 29 -50 30 -69 45 -69
52 0 9 113 -33 133 -49z m102 3 c1 -25 1 -45 -1 -45 -24 0 -29 14 -20 55 12
53 19 50 21 -10z m255 45 c0 -5 -2 -10 -4 -10 -3 0 -8 5 -11 10 -3 6 -1 10 4
10 6 0 11 -4 11 -10z m2824 -27 c-16 -16 -31 -24 -33 -19 -4 11 35 46 51 46 6
0 -2 -12 -18 -27z m-2969 -12 c-6 -5 -25 10 -25 20 0 5 6 4 14 -3 8 -7 12 -15
11 -17z m945 9 c0 -5 -2 -10 -4 -10 -3 0 -8 5 -11 10 -3 6 -1 10 4 10 6 0 11
-4 11 -10z m-973 -35 c-4 -8 -12 -15 -19 -14 -10 0 -10 2 0 6 6 2 12 12 12 21
0 8 3 13 6 9 4 -3 4 -13 1 -22z m-2977 -17 c-17 -74 -32 -120 -37 -115 -4 5
14 82 32 135 9 25 13 11 5 -20z m5425 -6 c9 -54 9 -133 1 -159 -10 -33 -29
-29 -22 5 14 74 17 122 8 155 -6 21 -7 37 -2 37 5 0 11 -17 15 -38z m-2467
-20 c6 -18 -15 -14 -22 4 -4 10 -1 14 6 12 6 -2 14 -10 16 -16z m-18 -22 c12
-8 11 -10 -7 -10 -13 0 -23 5 -23 10 0 13 11 13 30 0z m-325 -11 c4 -6 13 -8
20 -5 13 5 65 -39 65 -55 0 -4 -13 -3 -29 2 -30 11 -93 69 -73 69 6 0 14 -5
17 -11z m-3595 -20 c0 -6 -4 -7 -10 -4 -5 3 -10 11 -10 16 0 6 5 7 10 4 6 -3
10 -11 10 -16z m4106 7 c29 -22 13 -26 -21 -5 -17 11 -23 19 -14 19 8 0 24 -6
35 -14z m-2116 -12 c0 -2 -9 -4 -20 -4 -11 0 -20 4 -20 9 0 5 9 7 20 4 11 -3
20 -7 20 -9z m1700 1 c7 -9 8 -15 2 -15 -5 0 -12 7 -16 15 -3 8 -4 15 -2 15 2
0 9 -7 16 -15z m220 -2 c0 -5 -5 -15 -10 -23 -8 -12 -10 -11 -10 8 0 12 5 22
10 22 6 0 10 -3 10 -7z m-1909 -62 c7 10 8 8 6 -8 -5 -38 -14 -36 -31 7 -20
50 -20 67 1 21 11 -27 17 -32 24 -20z m4608 5 c20 -31 30 -78 14 -62 -8 8 -43
96 -38 96 2 0 13 -15 24 -34z m-3015 0 c-6 -15 -24 -23 -24 -11 0 8 24 34 28
30 1 -1 0 -10 -4 -19z m-736 -240 c21 -44 52 -86 98 -132 60 -59 50 -66 -15
-10 -92 80 -169 254 -155 351 l7 50 18 -98 c10 -54 30 -126 47 -161z m2052
244 c0 -5 -4 -10 -10 -10 -5 0 -10 5 -10 10 0 6 5 10 10 10 6 0 10 -4 10 -10z
m2435 -20 c8 -13 -12 -50 -27 -50 -9 0 -9 3 0 12 19 19 14 28 -14 28 -14 0
-23 4 -19 10 8 13 52 13 60 0z m-6518 -22 c-3 -8 -6 -5 -6 6 -1 11 2 17 5 13
3 -3 4 -12 1 -19z m2223 6 c0 -2 -9 -4 -21 -4 -11 0 -18 4 -14 10 5 8 35 3 35
-6z m-1010 -24 c0 -5 -4 -10 -10 -10 -5 0 -10 5 -10 10 0 6 5 10 10 10 6 0 10
-4 10 -10z m-26 -16 c3 -8 2 -12 -4 -9 -6 3 -10 10 -10 16 0 14 7 11 14 -7z
m1161 6 c-3 -5 -12 -10 -18 -10 -7 0 -6 4 3 10 19 12 23 12 15 0z m-79 -61
c-53 -53 -65 -98 -43 -152 23 -55 53 -69 154 -72 71 -2 104 -9 168 -35 45 -18
91 -30 107 -28 l27 4 -14 -33 c-14 -32 -13 -34 9 -43 52 -19 79 -96 52 -148
-27 -52 -60 -59 -126 -29 -35 17 -85 69 -82 87 2 11 -1 10 -8 -2 -12 -20 -50
-24 -50 -6 0 6 -3 8 -7 5 -10 -11 -32 13 -26 29 4 11 9 12 18 4 7 -6 16 -7 19
-2 3 5 -15 23 -39 40 -39 28 -58 52 -39 52 20 0 73 -35 84 -55 14 -25 30 -33
30 -15 0 14 33 13 48 -2 7 -7 12 -9 12 -5 0 3 11 2 24 -3 16 -6 29 -5 42 4 21
16 12 46 -13 46 -10 0 -34 13 -54 29 -46 38 -102 67 -162 83 -40 10 -50 10
-56 -1 -21 -34 -124 28 -155 93 -29 61 -22 90 35 143 45 43 79 65 87 58 1 -1
-18 -22 -42 -46z m-85 -32 c-13 -13 -15 1 -4 30 7 17 8 17 11 -1 2 -10 -1 -23
-7 -29z m3599 24 c0 -5 -7 -11 -15 -15 -15 -5 -20 5 -8 17 9 10 23 9 23 -2z
m-3069 -61 c34 -37 59 -95 59 -139 0 -30 -13 -26 -34 9 -9 17 -28 41 -41 53
-13 12 -39 37 -59 56 -51 48 -48 77 9 66 17 -4 45 -23 66 -45z m3115 -21 c4
-40 3 -41 -6 -14 -17 50 -21 80 -9 68 6 -6 12 -30 15 -54z m-2166 -44 c0 -8
-2 -15 -4 -15 -2 0 -6 7 -10 15 -3 8 -1 15 4 15 6 0 10 -7 10 -15z m2181 -123
c-8 -14 -10 -10 -11 19 0 20 -2 52 -5 70 -3 19 2 10 10 -19 11 -37 13 -58 6
-70z m237 81 c25 -84 25 -84 3 -90 -17 -4 -21 -13 -21 -45 0 -45 -14 -78 -34
-78 -16 0 -76 54 -76 68 0 15 41 22 63 10 19 -10 20 -8 13 56 -6 61 -5 67 11
64 14 -2 18 3 16 25 -3 39 12 33 25 -10z m-3615 -7 c3 -12 -30 -32 -39 -24
-11 12 5 40 21 36 9 -2 17 -7 18 -12z m-1102 -133 c-12 -20 -14 -14 -5 12 4 9
9 14 11 11 3 -2 0 -13 -6 -23z m17 -40 c0 -16 4 -43 10 -60 6 -18 7 -33 3 -33
-11 0 -29 79 -24 101 7 27 12 23 11 -8z m-1331 -5 c-3 -8 -6 -5 -6 6 -1 11 2
17 5 13 3 -3 4 -12 1 -19z m3052 -102 c-9 -8 -10 -5 -5 14 3 14 7 41 8 60 1
27 3 23 5 -14 3 -30 0 -53 -8 -60z m-1679 44 c6 -11 8 -20 6 -20 -3 0 -10 9
-16 20 -6 11 -8 20 -6 20 3 0 10 -9 16 -20z m4498 -5 c-3 -3 -9 2 -12 12 -6
14 -5 15 5 6 7 -7 10 -15 7 -18z m-13 -26 c4 -17 4 -33 1 -36 -9 -9 -12 -2
-19 35 -8 41 9 42 18 1z m-2607 -51 c17 -24 32 -23 32 2 0 11 4 20 9 20 11 0
23 -29 16 -39 -7 -12 29 -9 38 3 4 7 9 2 13 -12 5 -18 9 -21 16 -10 7 10 11
10 15 1 2 -7 11 -13 19 -13 8 0 14 -4 14 -10 0 -5 5 -10 11 -10 6 0 9 7 5 15
-3 8 -3 15 0 15 2 0 9 -11 14 -25 5 -14 17 -28 26 -32 19 -7 114 -104 114
-117 0 -4 7 -6 15 -2 8 3 15 1 15 -4 0 -5 11 -21 25 -36 14 -15 25 -31 25 -35
0 -5 6 -6 14 -3 7 3 16 -2 20 -11 3 -9 2 -13 -4 -10 -6 3 -10 2 -10 -3 0 -6 7
-13 16 -16 9 -3 13 -13 10 -23 -2 -10 -8 -29 -11 -42 -5 -16 -4 -21 4 -17 15
9 13 -3 -3 -33 -12 -21 -12 -28 1 -47 13 -20 12 -23 -4 -33 -14 -8 -16 -12 -5
-22 14 -15 16 -33 3 -24 -23 13 -19 -15 4 -33 14 -11 25 -25 25 -31 0 -6 4
-11 8 -11 5 0 7 -15 5 -32 -2 -18 0 -27 3 -20 9 20 27 14 21 -8 -3 -11 -1 -20
5 -20 5 0 6 -4 3 -10 -3 -6 1 -7 9 -4 10 4 16 1 16 -9 0 -10 7 -13 20 -10 11
3 27 0 35 -7 9 -7 18 -10 21 -7 3 3 17 2 30 -3 13 -5 24 -6 24 -2 0 4 33 5 72
3 124 -6 191 -4 252 9 32 6 61 8 65 3 10 -14 53 -35 59 -29 3 3 14 -13 25 -37
15 -30 21 -63 21 -117 1 -64 -3 -82 -26 -121 -27 -46 -90 -109 -109 -109 -9 0
-3 9 29 45 6 7 12 17 12 21 0 4 8 16 18 27 9 11 11 17 5 13 -7 -4 -13 -2 -13
3 0 6 5 11 11 11 5 0 7 5 4 10 -4 7 -13 7 -25 0 -20 -11 -60 5 -60 23 0 5 -6
7 -12 4 -44 -16 -58 -18 -56 -7 2 7 -3 15 -9 17 -7 3 -13 -3 -14 -14 0 -11 -4
-7 -11 12 -10 26 -12 27 -18 10 -6 -18 -8 -17 -30 8 -13 15 -31 27 -40 27 -9
0 -25 9 -35 20 -10 12 -26 19 -34 17 -9 -2 -31 5 -50 17 -23 13 -36 16 -39 8
-4 -13 -52 5 -52 20 0 4 -3 7 -8 5 -15 -4 -120 46 -118 57 1 6 5 17 10 24 4 7
6 14 5 16 -60 40 -92 46 -44 8 15 -12 24 -26 20 -32 -5 -8 -12 -4 -22 10 -11
15 -23 20 -39 17 -13 -2 -21 0 -18 4 3 5 0 9 -6 9 -7 0 -10 7 -6 15 3 8 1 15
-4 15 -6 0 -10 -4 -10 -9 0 -5 -9 -7 -20 -4 -22 6 -27 23 -7 23 6 1 1 7 -13
15 -21 12 -22 14 -6 15 17 0 17 2 -4 20 -26 22 -35 26 -24 9 4 -7 1 -10 -7 -7
-8 3 -13 11 -11 17 1 6 -4 11 -12 11 -8 0 -18 5 -22 12 -5 8 -1 9 12 5 17 -6
17 -6 3 5 -9 7 -14 19 -11 27 3 10 0 12 -11 8 -11 -4 -14 -2 -10 9 3 7 -1 14
-8 14 -20 0 -4 10 24 16 74 13 51 19 -80 21 -88 1 -150 6 -157 13 -7 7 4 10
39 8 28 -1 79 -1 115 0 76 2 71 15 -16 38 -32 8 -66 22 -74 31 -13 14 -13 15
3 10 9 -4 17 -2 17 4 0 7 -10 9 -25 5 -28 -7 -34 8 -8 18 15 6 15 8 3 16 -12
7 -9 10 12 10 15 0 30 5 34 12 5 7 2 9 -7 6 -8 -3 -30 3 -49 13 -19 11 -29 19
-22 19 6 0 12 11 12 25 0 14 -6 25 -13 25 -7 0 -23 -11 -35 -25 -12 -14 -18
-25 -14 -25 4 0 8 -9 9 -20 1 -11 -2 -18 -7 -15 -5 3 -11 -4 -15 -15 -9 -28
-22 -25 -28 8 -4 20 1 34 19 53 17 18 21 28 13 36 -8 8 0 18 27 37 42 29 36
35 -10 11 -16 -9 -47 -20 -69 -25 l-39 -8 22 20 21 20 -23 19 c-12 11 -30 18
-40 16 -10 -3 -18 -1 -18 4 0 5 30 9 66 9 41 0 63 4 59 10 -4 6 -10 8 -15 5
-5 -3 -22 0 -36 8 -17 9 -23 17 -15 21 16 11 13 26 -4 20 -10 -4 -15 0 -15 11
0 10 -5 14 -12 10 -7 -4 -6 -1 2 7 22 19 21 32 -1 46 -11 7 -19 8 -19 2 0 -5
5 -10 10 -10 6 0 10 -5 10 -12 0 -8 -5 -7 -15 3 -18 17 -10 49 11 49 8 0 14
-4 14 -10 0 -5 7 -10 15 -10 9 0 20 -12 26 -27 7 -19 13 -23 21 -15 6 6 7 18
3 29 -8 18 -8 36 0 61 6 15 24 7 43 -20z m-3228 -6 c0 -15 -5 -33 -11 -39 -9
-9 -9 -48 0 -156 6 -80 11 -156 10 -168 -1 -22 -2 -21 -9 4 -5 16 -12 110 -16
208 -6 162 -5 179 10 179 11 0 16 -9 16 -28z m5636 3 c-3 -10 6 -15 32 -17 30
-2 38 -7 40 -27 4 -22 3 -23 -19 -7 -37 26 -57 20 -64 -16 -22 -132 -23 -134
-19 -30 2 57 6 108 10 113 8 14 26 -1 20 -16z m-930 0 c-11 -8 -22 -12 -25 -9
-6 6 19 24 34 24 6 -1 1 -7 -9 -15z m-3352 -31 c3 -8 2 -12 -4 -9 -6 3 -10 10
-10 16 0 14 7 11 14 -7z m56 -1 c0 -7 -4 -13 -9 -13 -5 0 -11 6 -14 13 -3 8 1
14 9 14 8 0 14 -6 14 -14z m-2470 -73 c0 -5 -4 -10 -9 -10 -6 0 -13 5 -16 10
-3 6 1 10 9 10 9 0 16 -4 16 -10z m567 -87 c-2 -21 -4 -6 -4 32 0 39 2 55 4
38 2 -18 2 -50 0 -70z m6213 2 c-7 -9 -8 -15 0 -20 5 -3 10 -1 10 4 0 21 20
10 26 -14 3 -14 12 -25 19 -25 7 0 17 -24 24 -57 14 -69 14 -86 1 -78 -5 3
-10 -2 -10 -11 0 -10 3 -14 7 -11 12 13 32 -28 33 -66 0 -21 4 -36 9 -33 11 7
21 -18 21 -55 0 -16 5 -29 10 -29 14 0 12 216 -3 317 -13 83 -7 147 8 91 4
-16 11 -25 16 -22 5 3 10 -23 11 -58 1 -36 3 -48 5 -28 2 19 7 42 10 50 3 8 5
21 4 29 -1 7 0 20 4 29 5 14 7 14 15 2 7 -10 10 -11 10 -2 0 6 5 12 11 12 6 0
9 -14 7 -32 -2 -26 -8 -34 -26 -36 -21 -3 -22 -7 -16 -54 5 -37 3 -52 -6 -58
-11 -7 -11 -27 -1 -118 19 -156 2 -382 -29 -382 -5 0 -11 -26 -15 -57 -4 -32
-13 -107 -21 -166 -8 -59 -14 -112 -14 -117 0 -6 -3 -9 -7 -9 -20 3 -26 -2
-13 -11 11 -7 12 -12 3 -18 -6 -4 -15 -32 -19 -62 -7 -61 -17 -84 -47 -117
-19 -21 -22 -22 -39 -7 -16 15 -18 15 -24 1 -4 -12 -11 -14 -23 -7 -12 6 -22
5 -29 -2 -9 -9 -12 8 -12 70 0 50 -4 82 -10 82 -6 0 -15 10 -20 23 l-9 22 -7
-22 c-12 -41 -24 -24 -24 33 0 52 -1 55 -22 49 -21 -7 -21 -6 -16 76 5 75 -6
213 -12 149 l-2 -25 -7 25 c-6 20 -3 26 13 30 12 4 23 19 29 40 5 19 13 39 18
44 5 6 9 19 10 30 0 21 0 21 9 1 5 -11 9 -17 11 -12 5 19 6 74 2 91 -4 15 -7
16 -15 5 -7 -10 -8 -6 -3 14 5 26 4 27 -15 17 -16 -8 -24 -8 -34 3 -12 11 -9
22 20 67 19 30 34 61 34 70 0 9 14 21 30 27 22 8 30 18 30 35 -1 21 -2 22 -14
5 -13 -16 -14 -16 -18 7 -4 19 0 26 19 30 17 5 23 13 23 34 1 70 70 279 78
237 2 -9 -1 -22 -8 -30z m-6210 -97 c0 -24 9 -113 20 -198 30 -235 32 -261 20
-225 -29 85 -68 465 -48 465 4 0 8 -19 8 -42z m3530 -3 c-7 -9 -15 -13 -17
-11 -7 7 7 26 19 26 6 0 6 -6 -2 -15z m-2884 -57 c-3 -13 -6 -30 -6 -38 -1 -8
-6 -4 -11 9 -11 28 -5 51 12 51 7 0 9 -9 5 -22z m3139 -8 c3 -5 -1 -10 -9 -10
-8 0 -18 5 -21 10 -3 6 1 10 9 10 8 0 18 -4 21 -10z m2256 -7 c-5 -10 -14 -43
-19 -73 l-9 -55 1 73 c0 62 3 72 18 72 14 0 16 -4 9 -17z m446 -25 c-3 -7 -5
-2 -5 12 0 14 2 19 5 13 2 -7 2 -19 0 -25z m-6788 -29 c3 -24 3 -24 -18 -5
-11 10 -18 23 -15 28 10 16 29 2 33 -23z m928 -26 c-3 -10 -5 -4 -5 12 0 17 2
24 5 18 2 -7 2 -21 0 -30z m-965 -55 c-7 -7 -12 -8 -12 -2 0 14 12 26 19 19 2
-3 -1 -11 -7 -17z m845 -10 c-3 -7 -5 -2 -5 12 0 14 2 19 5 13 2 -7 2 -19 0
-25z m4083 -2 c0 -3 -4 -8 -10 -11 -5 -3 -10 -1 -10 4 0 6 5 11 10 11 6 0 10
-2 10 -4z m-4689 -25 c-9 -6 -10 -11 -2 -15 6 -4 11 -18 11 -32 0 -19 -5 -25
-17 -22 -34 6 -24 78 11 78 6 0 5 -4 -3 -9z m616 -38 c-3 -10 -5 -4 -5 12 0
17 2 24 5 18 2 -7 2 -21 0 -30z m90 5 c-3 -8 -6 -5 -6 6 -1 11 2 17 5 13 3 -3
4 -12 1 -19z m3176 15 c-7 -2 -19 -2 -25 0 -7 3 -2 5 12 5 14 0 19 -2 13 -5z
m1187 -86 c0 -2 -12 -14 -27 -28 l-28 -24 24 28 c23 25 31 32 31 24z m-5420
-38 c0 -15 -4 -19 -16 -15 -9 3 -18 6 -20 6 -2 0 -4 7 -4 15 0 8 9 15 20 15
14 0 20 -7 20 -21z m987 -41 c-3 -8 -6 -5 -6 6 -1 11 2 17 5 13 3 -3 4 -12 1
-19z m-480 -60 c-3 -7 -5 -2 -5 12 0 14 2 19 5 13 2 -7 2 -19 0 -25z m-437
-148 c0 -5 -2 -10 -4 -10 -3 0 -8 5 -11 10 -3 6 -1 10 4 10 6 0 11 -4 11 -10z
m-69 -55 c-1 -15 -24 -12 -29 3 -3 9 2 13 12 10 10 -1 17 -7 17 -13z m6984
-114 c0 -8 -8 -19 -17 -25 -22 -13 -44 5 -34 29 7 20 51 16 51 -4z m-675 -25
c0 -8 -4 -18 -10 -21 -5 -3 -10 3 -10 14 0 12 5 21 10 21 6 0 10 -6 10 -14z
m-6249 -42 c12 -25 18 -48 16 -51 -6 -6 -47 70 -47 87 0 22 12 8 31 -36z
m1806 -20 c-9 -9 -37 15 -37 33 0 10 6 8 22 -7 12 -11 19 -23 15 -26z m3997
-80 c17 -6 22 -34 7 -34 -5 0 -11 -17 -14 -37 -8 -49 -35 -89 -50 -74 -7 7 -6
16 5 28 17 19 41 94 33 102 -3 2 -5 -1 -5 -7 0 -7 -7 -12 -15 -12 -13 0 -13 3
-3 20 14 22 18 23 42 14z m-5804 -46 c0 -17 -3 -19 -9 -9 -5 7 -15 17 -22 22
-10 6 -8 9 9 9 16 0 22 -6 22 -22z m140 -115 c110 -196 135 -230 314 -408 93
-93 169 -173 168 -176 0 -4 10 -17 23 -29 14 -13 25 -19 25 -13 0 6 -10 18
-22 27 -13 9 -16 15 -8 13 8 -2 41 -34 72 -72 52 -61 57 -71 53 -104 l-5 -36
158 -103 c86 -57 171 -110 187 -117 17 -8 52 -33 78 -57 36 -32 47 -48 42 -60
-4 -10 -14 -18 -21 -18 -37 0 -198 97 -442 267 -53 37 -97 62 -99 56 -2 -5
-10 -19 -18 -29 -15 -21 -16 -19 -30 69 -5 29 -14 43 -45 63 -37 24 -90 84
-90 100 0 4 18 -14 41 -40 23 -25 62 -56 88 -68 25 -11 61 -34 79 -49 18 -16
38 -29 45 -29 8 0 8 3 -2 9 -7 5 -15 31 -17 57 -4 45 -8 53 -61 100 -32 28
-63 57 -70 65 -6 8 -81 86 -166 174 -158 164 -203 228 -331 468 -62 118 -17
68 54 -60z m3270 107 c8 -5 11 -10 5 -10 -5 0 -17 5 -25 10 -8 5 -10 10 -5 10
6 0 17 -5 25 -10z m75 -8 c-3 -3 -11 0 -18 7 -9 10 -8 11 6 5 10 -3 15 -9 12
-12z m2405 11 c0 -5 -5 -15 -10 -23 -8 -12 -10 -11 -10 8 0 12 5 22 10 22 6 0
10 -3 10 -7z m-2395 -44 c15 -14 -7 -10 -35 7 l-25 15 25 -7 c14 -3 29 -10 35
-15z m-50 -17 c-3 -3 -11 0 -18 7 -9 10 -8 11 6 5 10 -3 15 -9 12 -12z m-1995
-43 c0 -6 -4 -7 -10 -4 -5 3 -10 11 -10 16 0 6 5 7 10 4 6 -3 10 -11 10 -16z
m2660 -10 c0 -5 -4 -9 -8 -9 -5 0 -9 7 -9 15 0 8 4 12 9 9 4 -3 8 -9 8 -15z
m-3074 -116 c34 -54 140 -200 176 -243 7 -9 46 -55 86 -103 40 -48 68 -87 63
-87 -6 0 -11 3 -11 8 0 8 -61 75 -159 177 -56 58 -149 192 -143 208 1 4 -2 7
-8 7 -5 0 -10 4 -10 9 0 5 -16 35 -35 67 -19 32 -35 63 -35 68 0 6 9 -2 19
-19 10 -16 35 -58 57 -92z m4705 85 c-7 -18 -6 -29 2 -37 7 -7 8 -14 1 -21 -7
-7 -18 -2 -33 14 l-23 25 26 26 c31 31 41 29 27 -7z m194 23 c3 -5 0 -13 -6
-16 -6 -4 -19 -27 -29 -51 -23 -52 -30 -55 -27 -14 1 16 7 30 14 30 7 0 10 7
7 15 -10 26 27 58 41 36z m-1845 -11 c12 -8 12 -13 -3 -44 -16 -35 -17 -36
-37 -19 l-21 18 25 9 c29 11 36 27 8 19 -10 -2 -23 2 -30 9 -9 11 -6 14 16 16
15 1 34 -3 42 -8z m-3224 -147 c13 -18 25 -36 27 -40 2 -9 32 -47 65 -81 13
-13 21 -27 18 -30 -3 -3 -16 8 -28 23 -12 16 -33 40 -46 54 -30 32 -152 206
-152 217 0 4 20 -19 45 -52 25 -32 57 -74 71 -91z m2619 97 c-3 -5 -14 -10
-23 -10 -15 0 -15 2 -2 10 20 13 33 13 25 0z m30 0 c3 -5 1 -10 -4 -10 -6 0
-11 5 -11 10 0 6 2 10 4 10 3 0 8 -4 11 -10z m-8 -35 c12 -12 18 -13 29 -4 12
10 13 9 8 -5 -3 -9 -12 -16 -20 -16 -8 0 -14 -6 -14 -14 0 -8 -4 -18 -10 -21
-6 -3 -7 1 -4 9 4 11 0 16 -12 17 -14 1 -12 3 6 9 22 6 23 8 8 15 -10 4 -18
11 -18 16 0 13 9 11 27 -6z m530 -14 c0 -9 -9 -27 -21 -41 -42 -48 -47 -59
-52 -117 -3 -32 -8 -65 -11 -73 -3 -8 -8 -26 -10 -40 -2 -14 -8 -29 -13 -34
-5 -5 -7 0 -3 13 3 12 1 21 -6 21 -7 0 -7 7 1 25 6 14 15 25 20 25 5 0 6 5 2
11 -4 8 -9 8 -17 0 -21 -21 -37 -12 -37 22 0 26 6 36 25 45 14 6 25 16 25 22
0 5 8 19 18 29 51 56 59 68 56 87 -2 12 2 21 10 21 7 0 13 -7 13 -16z m-2517
-21 c0 -5 -4 -10 -10 -10 -5 0 -10 5 -10 10 0 6 5 10 10 10 6 0 10 -4 10 -10z
m2058 -20 c3 -8 0 -10 -8 -5 -10 6 -12 4 -7 -8 4 -12 1 -17 -11 -17 -24 -1
-52 -24 -52 -43 0 -9 8 -21 18 -26 14 -9 12 -10 -13 -11 -56 0 -56 17 -1 75
51 54 66 61 74 35z m-3102 -35 c32 -49 -8 -105 -48 -68 -36 33 -40 50 -16 73
29 26 44 25 64 -5z m2374 -11 c0 -18 -8 -18 -26 1 -19 19 -8 41 12 24 8 -6 14
-18 14 -25z m2604 12 c-10 -8 -21 -12 -24 -9 -3 2 4 11 14 19 11 7 22 12 25 9
2 -3 -4 -12 -15 -19z m146 -26 c0 -5 -2 -10 -4 -10 -3 0 -8 5 -11 10 -3 6 -1
10 4 10 6 0 11 -4 11 -10z m-2009 -17 c8 -9 9 -14 3 -10 -7 4 -18 -1 -25 -10
-11 -13 -11 -17 -1 -21 7 -2 19 -10 26 -18 8 -8 19 -14 24 -14 6 0 12 -7 16
-15 5 -13 2 -13 -25 1 -17 8 -37 13 -45 10 -7 -3 -30 1 -51 10 -21 8 -28 13
-16 10 29 -5 58 25 40 43 -9 10 -9 11 4 6 10 -4 19 0 22 9 8 20 11 20 28 -1z
m2353 -53 c8 34 9 34 16 10 4 -14 8 -20 9 -14 1 5 8 19 16 30 14 18 15 17 9
-11 -4 -16 -3 -27 1 -23 4 4 19 -2 33 -13 l26 -20 13 23 c12 23 12 23 13 -7 1
-16 4 -24 7 -17 21 52 29 -58 10 -128 -20 -71 -67 -156 -78 -139 -4 8 -6 32
-2 53 4 26 3 37 -4 33 -6 -4 -17 0 -24 9 -11 14 -15 13 -31 -8 -17 -22 -18
-22 -18 -3 0 17 -2 17 -10 5 -7 -12 -10 -12 -10 -1 0 7 -6 11 -14 8 -7 -3 -19
0 -25 6 -8 8 -17 7 -36 -3 -31 -16 -42 -7 -27 23 6 12 14 38 17 57 4 19 21 58
39 85 18 28 36 59 41 70 7 17 10 13 15 -20 l5 -40 9 35z m-4224 -90 c0 -11 -2
-20 -4 -20 -2 0 -6 9 -9 20 -3 11 -1 20 4 20 5 0 9 -9 9 -20z m1885 10 c8 -13
-5 -13 -25 0 -13 8 -13 10 2 10 9 0 20 -4 23 -10z m-83 -14 c7 4 8 3 4 -4 -10
-17 -31 -15 -47 5 -13 15 -12 15 9 4 12 -6 28 -9 34 -5z m1081 -3 c9 -8 -12
-33 -27 -33 -6 0 -4 5 4 10 11 7 11 10 2 10 -7 0 -10 5 -7 10 7 12 19 13 28 3z
m-3 -54 c0 -5 -11 -9 -25 -9 -14 0 -25 4 -25 9 0 5 11 9 25 9 14 0 25 -4 25
-9z m-120 -19 c0 -5 -2 -10 -4 -10 -3 0 -8 5 -11 10 -3 6 -1 10 4 10 6 0 11
-4 11 -10z m20 -30 c0 -5 -4 -10 -10 -10 -5 0 -10 5 -10 10 0 6 5 10 10 10 6
0 10 -4 10 -10z m-3764 -57 c-4 -4 -11 -1 -16 7 -16 25 -11 35 7 17 9 -9 13
-20 9 -24z m3481 -10 c3 -9 -4 -10 -28 -3 -44 13 -47 19 -8 17 18 -1 34 -7 36
-14z m117 -20 c4 -9 2 -21 -3 -26 -15 -15 -46 -3 -49 21 -3 18 1 22 21 22 14
0 28 -7 31 -17z m-2329 -48 c33 -30 56 -54 52 -55 -4 0 -26 18 -49 40 -23 22
-50 42 -60 46 -17 5 -26 24 -10 24 4 0 34 -25 67 -55z m2135 -86 c0 -5 -4 -9
-10 -9 -5 0 -10 7 -10 16 0 8 5 12 10 9 6 -3 10 -10 10 -16z m1139 -28 c14
-42 14 -61 1 -61 -5 0 -10 6 -10 14 0 8 -14 25 -31 37 l-32 22 23 19 c26 21
33 17 49 -31z m-2779 13 c0 -16 -16 -19 -25 -4 -8 13 4 32 16 25 5 -4 9 -13 9
-21z m1600 22 c0 -3 -4 -8 -10 -11 -5 -3 -10 -1 -10 4 0 6 5 11 10 11 6 0 10
-2 10 -4z m1290 -26 c-6 -11 -15 -20 -20 -20 -14 0 -12 27 3 33 23 10 28 7 17
-13z m395 11 c3 -5 1 -12 -5 -16 -5 -3 -10 1 -10 9 0 18 6 21 15 7z m-812 -61
c-7 -8 -22 24 -16 34 4 5 10 1 13 -10 4 -10 6 -21 3 -24z m-1066 -2 c-3 -8 -6
-5 -6 6 -1 11 2 17 5 13 3 -3 4 -12 1 -19z m1238 -36 c0 -27 -6 -56 -14 -65
-12 -15 -17 -13 -47 20 -38 41 -43 63 -16 63 10 0 22 4 28 9 5 5 18 11 29 14
11 3 20 5 20 6 0 0 0 -21 0 -47z m-1219 -19 c-11 -11 -19 6 -11 24 8 17 8 17
12 0 3 -10 2 -21 -1 -24z m-1476 17 c0 -13 -11 -13 -30 0 -12 8 -11 10 8 10
12 0 22 -4 22 -10z m2015 -30 c-3 -5 -11 -10 -16 -10 -6 0 -7 5 -4 10 3 6 11
10 16 10 6 0 7 -4 4 -10z m-55 -25 c0 -6 -56 -35 -67 -35 -9 0 48 38 60 39 4
1 7 -1 7 -4z m-1717 -40 c18 -2 66 -13 107 -24 41 -10 93 -22 115 -26 22 -4
34 -10 27 -12 -22 -8 -318 62 -328 78 -3 5 7 4 21 -1 14 -5 41 -12 58 -15z
m2418 -38 c-10 -9 -11 -8 -5 6 3 10 9 15 12 12 3 -3 0 -11 -7 -18z m1229 8 c0
-9 -9 -15 -25 -15 -18 0 -23 4 -19 15 4 8 15 15 25 15 10 0 19 -7 19 -15z
m-5192 -27 c20 -20 14 -40 -10 -36 -14 2 -22 11 -23 26 -2 24 14 29 33 10z
m3565 -147 c-9 -12 -23 18 -16 35 6 17 8 17 13 -6 4 -14 5 -27 3 -29z m-3025
1 c2 -7 -2 -10 -12 -6 -9 3 -16 11 -16 16 0 13 23 5 28 -10z m-882 -33 c4 -8
1 -8 -14 0 -12 6 -24 16 -28 22 -4 8 -1 8 14 0 12 -6 24 -16 28 -22z m4241 -5
c-3 -3 -12 -4 -19 -1 -8 3 -5 6 6 6 11 1 17 -2 13 -5z m1038 -44 c3 -5 -1 -10
-9 -10 -9 0 -16 5 -16 10 0 6 4 10 9 10 6 0 13 -4 16 -10z m-375 -29 c0 -11
-9 -21 -22 -25 -30 -7 -45 8 -28 29 18 21 50 19 50 -4z m-4706 -26 c12 -9 16
-20 12 -32 -7 -16 -9 -16 -26 7 -31 40 -23 53 14 25z m134 -77 c7 -7 12 -29
12 -49 0 -38 0 -38 -30 -28 -28 10 -41 29 -20 29 6 0 10 14 10 30 0 32 9 37
28 18z m4837 -78 c3 -5 -1 -10 -9 -10 -9 0 -16 5 -16 10 0 6 4 10 9 10 6 0 13
-4 16 -10z m-4260 -130 c3 -5 1 -10 -4 -10 -6 0 -11 5 -11 10 0 6 2 10 4 10 3
0 8 -4 11 -10z m806 -39 c-19 -12 50 -52 179 -104 63 -26 107 -47 98 -47 -10
0 -36 7 -58 16 -53 22 -66 10 -41 -39 21 -42 15 -45 -37 -17 -66 35 -66 35
-47 63 17 26 16 26 -17 46 -75 44 -110 73 -100 83 6 6 8 18 4 27 -5 13 -3 13
13 -2 13 -14 15 -21 6 -26z m149 -71 c0 -5 -2 -10 -4 -10 -3 0 -8 5 -11 10 -3
6 -1 10 4 10 6 0 11 -4 11 -10z m45 -10 c3 -5 -3 -10 -14 -10 -12 0 -21 5 -21
10 0 6 6 10 14 10 8 0 18 -4 21 -10z m1058 3 c-7 -2 -19 -2 -25 0 -7 3 -2 5
12 5 14 0 19 -2 13 -5z m-1258 -31 c-3 -3 -11 0 -18 7 -9 10 -8 11 6 5 10 -3
15 -9 12 -12z m1272 12 c-3 -3 -12 -4 -19 -1 -8 3 -5 6 6 6 11 1 17 -2 13 -5z
m2145 -69 c-4 -22 -9 -25 -46 -25 l-41 1 28 24 c38 34 66 33 59 0z m-3026 4
c4 -8 -1 -9 -16 -4 -15 5 -20 4 -16 -4 4 -6 15 -11 25 -11 9 0 26 -7 37 -15
12 -9 45 -15 89 -16 51 -1 63 -3 45 -9 -14 -4 -19 -8 -11 -9 8 -1 12 -4 9 -7
-6 -5 -80 6 -141 21 -21 6 -27 4 -27 -9 0 -28 -19 -17 -35 21 -12 29 -13 38
-3 45 18 11 36 10 44 -3z m-348 -75 c12 -8 22 -19 22 -25 0 -13 -42 -10 -62 5
-41 31 -3 50 40 20z m260 -8 c22 -8 43 -12 46 -9 3 3 8 -2 12 -11 11 -29 -2
-28 -58 3 -59 34 -59 38 0 17z m2902 2 c-1 -14 -24 -48 -33 -48 -4 0 -11 10
-18 21 -9 17 -8 23 2 30 21 13 49 11 49 -3z m-2565 -8 c-3 -5 -11 -10 -16 -10
-6 0 -7 5 -4 10 3 6 11 10 16 10 6 0 7 -4 4 -10z m2478 -49 c4 -17 0 -20 -35
-18 l-39 1 23 18 c30 23 44 23 51 -1z m37 5 c0 -3 -4 -8 -10 -11 -5 -3 -10 -1
-10 4 0 6 5 11 10 11 6 0 10 -2 10 -4z m-450 -10 c0 -2 -9 -6 -20 -9 -11 -3
-18 -1 -14 4 5 9 34 13 34 5z m-2337 -45 c89 -50 309 -142 372 -156 33 -7 153
-36 267 -65 209 -52 243 -56 243 -31 0 8 9 17 20 22 28 11 37 11 30 0 -10 -18
97 -41 193 -43 17 0 32 -4 32 -9 0 -5 -27 -9 -60 -9 -33 0 -60 -4 -60 -9 0
-18 -75 -22 -121 -7 -24 8 -109 29 -189 46 -261 57 -409 101 -568 169 -92 40
-222 108 -222 116 0 9 11 5 63 -24z m1566 -12 c-16 -10 -23 -4 -14 10 3 6 11
8 17 5 6 -4 5 -9 -3 -15z m661 -14 c0 -9 -9 -15 -22 -15 -22 1 -23 1 -4 15 25
19 26 19 26 0z m466 -10 c-11 -8 -25 -15 -30 -15 -6 1 0 7 14 15 32 19 40 18
16 0z m-60 -30 c-20 -15 -36 -19 -36 -10 0 5 38 23 50 24 3 0 -4 -6 -14 -14z
m-111 -5 c-11 -5 -33 -9 -50 -9 -23 -1 -26 2 -15 9 8 5 31 9 50 9 29 0 31 -2
15 -9z m-2118 -12 c28 -10 46 -28 28 -28 -12 0 -75 29 -75 34 0 9 10 7 47 -6z
m620 6 c-3 -3 -12 -4 -19 -1 -8 3 -5 6 6 6 11 1 17 -2 13 -5z m1383 -44 c0 -5
-4 -10 -10 -10 -5 0 -10 5 -10 10 0 6 5 10 10 10 6 0 10 -4 10 -10z m-1886 -9
c18 -7 16 -9 -14 -19 -40 -15 -77 -15 -85 -2 -3 5 9 14 27 19 41 11 48 12 72
2z m1596 0 c0 -5 -13 -14 -30 -20 -24 -8 -30 -7 -30 4 0 7 6 16 13 18 21 9 47
8 47 -2z m-1513 -7 c-3 -3 -12 -4 -19 -1 -8 3 -5 6 6 6 11 1 17 -2 13 -5z m4
-37 c-13 -13 -26 -3 -16 12 3 6 11 8 17 5 6 -4 6 -10 -1 -17z m1679 8 c-12
-15 -30 -12 -30 6 0 5 10 9 21 9 18 0 19 -2 9 -15z m-450 -26 c0 -5 -11 -9
-25 -9 -27 0 -32 9 -13 28 12 12 38 -1 38 -19z m-1110 -10 c25 -6 39 -14 31
-17 -16 -5 -121 29 -121 40 0 4 10 3 23 -2 12 -5 42 -15 67 -21z m550 11 c-14
-4 -36 -8 -50 -8 l-25 0 25 8 c14 4 36 8 50 8 l25 0 -25 -8z m1035 1 c-6 -5
-26 -12 -45 -15 -35 -7 -35 -7 -10 8 27 17 70 22 55 7z m-1345 -11 c-19 -13
-30 -13 -30 0 0 6 10 10 23 10 18 0 19 -2 7 -10z m223 -29 c-7 -28 14 -61 40
-62 18 -1 16 -2 -8 -10 -40 -12 -59 -4 -52 22 4 13 -2 27 -14 37 -19 17 -19
17 8 23 15 4 29 7 30 8 0 0 -1 -8 -4 -18z m761 -10 c9 -14 -4 -41 -20 -41 -8
0 -14 5 -14 10 0 6 -7 10 -15 10 -23 0 -18 18 8 23 12 2 25 5 29 6 4 0 9 -3
12 -8z m-174 -21 c0 -5 -4 -10 -9 -10 -6 0 -13 5 -16 10 -3 6 1 10 9 10 9 0
16 -4 16 -10z m-173 -20 c4 -15 15 -20 57 -22 28 -2 -19 -7 -104 -11 -85 -5
-184 -7 -220 -5 -39 3 -14 5 65 6 117 2 128 4 111 17 -19 15 -19 15 2 15 12 0
22 5 22 10 0 6 14 10 31 10 22 0 32 -5 36 -20z m-1010 4 c-3 -3 -12 -4 -19 -1
-8 3 -5 6 6 6 11 1 17 -2 13 -5z m1228 -15 c-22 -4 -56 -7 -75 -7 l-35 1 40 7
c22 4 56 7 75 7 l35 1 -40 -9z m-492 -6 c-7 -2 -19 -2 -25 0 -7 3 -2 5 12 5
14 0 19 -2 13 -5z m736 -17 c-7 -7 -212 -47 -216 -42 -3 2 19 9 49 15 29 7 71
16 93 20 45 10 80 13 74 7z m-1114 -26 c26 -11 -56 -11 -100 0 -25 6 -20 8 25
8 30 0 64 -3 75 -8z m270 -25 l140 -14 -130 5 c-71 3 -159 9 -195 13 l-65 8
55 1 c30 0 118 -6 195 -13z m559 5 c-12 -12 -404 -29 -404 -17 0 4 53 8 118 8
97 1 187 7 282 17 9 1 11 -1 4 -8z m-1067 -36 c-3 -3 -12 -4 -19 -1 -8 3 -5 6
6 6 11 1 17 -2 13 -5z"/>
<path d="M4890 8448 c0 -11 32 -10 50 2 11 8 7 10 -17 8 -18 -1 -33 -6 -33
-10z"/>
<path d="M5185 7410 c11 -5 27 -9 35 -9 9 0 8 4 -5 9 -11 5 -27 9 -35 9 -9 0
-8 -4 5 -9z"/>
<path d="M4698 7383 c6 -2 18 -2 25 0 6 3 1 5 -13 5 -14 0 -19 -2 -12 -5z"/>
<path d="M4741 7376 c3 -3 49 -16 104 -31 55 -14 122 -35 149 -46 37 -16 51
-18 56 -9 4 7 13 9 20 5 9 -5 11 -4 6 3 -4 7 -18 12 -32 12 -14 0 -58 11 -97
24 -99 33 -222 58 -206 42z"/>
<path d="M6070 7246 c0 -8 -10 -17 -22 -19 -17 -3 -15 -5 9 -6 17 0 38 -4 47
-7 24 -9 18 9 -9 29 -21 15 -25 15 -25 3z"/>
<path d="M5150 7130 c0 -6 7 -10 15 -10 8 0 15 2 15 4 0 2 -7 6 -15 10 -8 3
-15 1 -15 -4z"/>
<path d="M5320 6879 c0 -5 5 -7 10 -4 6 3 10 8 10 11 0 2 -4 4 -10 4 -5 0 -10
-5 -10 -11z"/>
<path d="M5535 6860 c-10 -11 -15 -20 -12 -20 4 0 2 -12 -4 -27 l-10 -28 21
23 c25 27 34 28 21 3 -8 -13 -7 -22 2 -28 26 -21 35 -22 47 -8 11 13 10 14 -5
9 -13 -5 -16 -4 -11 4 4 7 17 12 28 12 12 0 18 3 15 7 -4 3 1 12 11 19 14 11
15 13 1 14 -8 0 -24 -7 -35 -15 -28 -21 -40 -18 -18 6 15 16 16 22 5 29 -8 4
-21 6 -29 2 -10 -3 -13 -1 -8 6 11 19 1 14 -19 -8z"/>
<path d="M5500 6750 c-9 -6 -10 -10 -3 -10 6 0 15 5 18 10 8 12 4 12 -15 0z"/>
<path d="M6027 6406 c-4 -10 -5 -21 -2 -24 9 -9 17 6 13 25 -3 17 -4 17 -11
-1z"/>
<path d="M5996 6358 c3 -4 9 -8 15 -8 5 0 9 4 9 8 0 5 -7 9 -15 9 -8 0 -12 -4
-9 -9z"/>
<path d="M5606 5855 c4 -8 11 -15 16 -15 6 0 5 6 -2 15 -7 8 -14 15 -16 15 -2
0 -1 -7 2 -15z"/>
<path d="M6734 5521 c4 -6 11 -9 16 -6 5 3 11 1 14 -4 4 -6 -8 -8 -29 -5 -19
2 -35 0 -35 -4 0 -5 -12 -7 -27 -5 -32 4 -57 -13 -67 -45 -10 -30 14 -38 64
-22 31 10 52 10 96 1 52 -10 59 -9 75 8 9 10 14 22 11 27 -23 32 -136 85 -118
55z m76 -76 c7 -9 8 -15 2 -15 -5 0 -12 7 -16 15 -3 8 -4 15 -2 15 2 0 9 -7
16 -15z"/>
<path d="M6175 5510 c3 -5 10 -10 16 -10 5 0 9 5 9 10 0 6 -7 10 -16 10 -8 0
-12 -4 -9 -10z"/>
<path d="M6265 5310 c-3 -5 -1 -10 4 -10 6 0 11 5 11 10 0 6 -2 10 -4 10 -3 0
-8 -4 -11 -10z"/>
<path d="M6271 5283 c-1 -17 16 -25 25 -12 4 7 3 9 -4 5 -5 -3 -13 0 -15 6 -4
9 -6 10 -6 1z"/>
<path d="M6250 5241 c0 -6 4 -13 10 -16 6 -3 7 1 4 9 -7 18 -14 21 -14 7z"/>
<path d="M6260 5090 c0 -5 5 -10 11 -10 5 0 7 5 4 10 -3 6 -8 10 -11 10 -2 0
-4 -4 -4 -10z"/>
<path d="M3146 7451 c-4 -7 -5 -15 -2 -18 9 -9 19 4 14 18 -4 11 -6 11 -12 0z"/>
<path d="M2888 7413 c-21 -23 -23 -40 -5 -46 9 -3 9 -8 -2 -21 -23 -27 -5 -29
24 -2 20 19 25 29 17 38 -5 7 -11 21 -13 32 -4 18 -5 18 -21 -1z"/>
<path d="M2947 7416 c-21 -16 -22 -36 -3 -36 8 0 18 9 21 21 9 27 4 30 -18 15z"/>
<path d="M2842 7335 c-14 -31 -15 -35 -4 -35 8 0 32 43 32 55 0 15 -19 1 -28
-20z"/>
<path d="M2750 7133 c-8 -16 -22 -39 -31 -53 -8 -14 -19 -34 -23 -45 -5 -16
-2 -15 14 5 31 37 80 108 80 114 0 17 -29 2 -40 -21z"/>
<path d="M4925 6970 c3 -5 11 -10 16 -10 6 0 7 5 4 10 -3 6 -11 10 -16 10 -6
0 -7 -4 -4 -10z"/>
<path d="M4760 6850 c0 -5 5 -10 11 -10 5 0 7 5 4 10 -3 6 -8 10 -11 10 -2 0
-4 -4 -4 -10z"/>
<path d="M2192 4870 c3 -43 1 -61 -9 -64 -17 -7 -16 -33 4 -95 10 -31 22 -51
31 -51 12 0 14 15 8 97 -8 125 -16 173 -28 173 -6 0 -9 -24 -6 -60z"/>
<path d="M4995 3320 c-3 -5 -5 -10 -3 -11 2 0 19 -2 38 -4 35 -4 35 -4 10 10
-30 17 -37 18 -45 5z"/>
<path d="M4980 3290 c0 -5 5 -10 11 -10 5 0 7 5 4 10 -3 6 -8 10 -11 10 -2 0
-4 -4 -4 -10z"/>
<path d="M5050 3270 c-20 -12 -5 -24 16 -12 9 5 12 12 7 15 -5 3 -15 2 -23 -3z"/>
<path d="M5345 3219 c-9 -17 -14 -36 -11 -42 3 -8 5 -7 5 2 1 11 4 11 16 1 13
-10 14 -6 12 29 -1 22 -3 41 -4 41 -1 0 -10 -14 -18 -31z"/>
<path d="M5297 3153 c-11 -10 -8 -51 3 -58 6 -4 10 8 10 29 0 37 -2 41 -13 29z"/>
<path d="M5036 3110 c2 -48 4 -54 11 -46 12 11 11 76 -1 76 -6 0 -10 -13 -10
-30z"/>
<path d="M5022 3028 c3 -7 13 -14 24 -15 10 -2 13 0 6 3 -6 3 -10 10 -6 15 3
5 -2 9 -11 9 -9 0 -15 -6 -13 -12z"/>
<path d="M6220 3036 c0 -2 7 -6 15 -10 8 -3 15 -1 15 4 0 6 -7 10 -15 10 -8 0
-15 -2 -15 -4z"/>
<path d="M6045 2870 c-3 -5 -2 -10 4 -10 5 0 13 5 16 10 3 6 2 10 -4 10 -5 0
-13 -4 -16 -10z"/>
<path d="M3935 2750 c3 -5 14 -10 23 -10 15 0 15 2 2 10 -20 13 -33 13 -25 0z"/>
<path d="M3985 2730 c3 -5 11 -10 16 -10 6 0 7 5 4 10 -3 6 -11 10 -16 10 -6
0 -7 -4 -4 -10z"/>
<path d="M3770 2717 c14 -6 28 -15 31 -20 4 -5 9 -5 13 1 3 6 -8 15 -26 21
-40 14 -50 13 -18 -2z"/>
<path d="M4110 2721 c0 -19 44 -41 82 -41 45 0 59 17 21 26 -36 8 -64 14 -85
20 -10 3 -18 1 -18 -5z"/>
<path d="M5345 2720 c-45 -12 -83 -43 -81 -66 1 -18 7 -24 24 -24 12 0 25 7
28 15 4 8 10 15 16 15 5 0 24 11 42 25 18 14 38 25 44 25 7 0 12 4 12 8 0 9
-55 11 -85 2z"/>
<path d="M4553 2708 c-20 -10 -32 -28 -18 -28 12 0 75 29 75 34 0 9 -33 6 -57
-6z"/>
<path d="M5245 2700 c-3 -6 1 -7 9 -4 18 7 21 14 7 14 -6 0 -13 -4 -16 -10z"/>
<path d="M3840 2682 c8 -5 26 -13 40 -16 17 -5 20 -4 10 2 -8 5 -26 13 -40 16
-17 5 -20 4 -10 -2z"/>
<path d="M3960 2660 c8 -5 22 -10 30 -10 13 0 13 1 0 10 -8 5 -22 10 -30 10
-13 0 -13 -1 0 -10z"/>
<path d="M3920 2646 c8 -8 29 -18 45 -22 39 -9 30 0 -20 20 -33 14 -37 14 -25
2z"/>
<path d="M5340 2630 c-13 -8 -12 -10 3 -10 9 0 17 5 17 10 0 12 -1 12 -20 0z"/>
<path d="M5008 2623 c7 -3 16 -2 19 1 4 3 -2 6 -13 5 -11 0 -14 -3 -6 -6z"/>
<path d="M4120 2610 c0 -13 28 -25 38 -16 3 4 0 11 -8 16 -20 13 -30 12 -30 0z"/>
<path d="M5980 2479 c0 -5 5 -7 10 -4 6 3 10 8 10 11 0 2 -4 4 -10 4 -5 0 -10
-5 -10 -11z"/>
<path d="M4585 2380 c3 -5 13 -10 21 -10 8 0 12 5 9 10 -3 6 -13 10 -21 10 -8
0 -12 -4 -9 -10z"/>
<path d="M6330 2332 c0 -6 -11 -13 -25 -16 -26 -7 -35 -26 -11 -26 22 0 61 36
48 44 -7 4 -12 3 -12 -2z"/>
<path d="M4705 2240 c3 -5 13 -10 21 -10 8 0 14 5 14 10 0 6 -9 10 -21 10 -11
0 -17 -4 -14 -10z"/>
<path d="M5907 2213 c-4 -3 -24 -6 -44 -5 l-38 2 28 -15 c22 -11 33 -12 52 -3
14 6 25 15 25 20 0 10 -14 11 -23 1z"/>
<path d="M4808 2203 c6 -2 18 -2 25 0 6 3 1 5 -13 5 -14 0 -19 -2 -12 -5z"/>
<path d="M5670 2119 c-108 -51 -156 -68 -309 -110 -151 -42 -333 -78 -405 -80
-22 -1 -54 -5 -71 -10 -51 -14 157 0 247 17 100 19 295 74 398 113 41 15 89
31 105 35 28 7 29 6 10 -7 -11 -8 -73 -31 -137 -51 -65 -20 -120 -41 -123 -46
-14 -23 62 -6 220 49 249 86 241 82 208 107 -28 21 -73 16 -143 -17z"/>
<path d="M6138 2143 c7 -3 16 -2 19 1 4 3 -2 6 -13 5 -11 0 -14 -3 -6 -6z"/>
<path d="M6453 2130 c-13 -5 -23 -12 -23 -15 0 -9 16 -5 36 10 22 16 19 18
-13 5z"/>
<path d="M5998 2118 c-16 -5 -28 -14 -28 -19 0 -12 2 -12 38 7 49 24 42 32
-10 12z"/>
<path d="M5820 2090 c-13 -9 -13 -10 0 -10 8 0 22 5 30 10 13 9 13 10 0 10 -8
0 -22 -5 -30 -10z"/>
<path d="M6444 2085 c-18 -13 -18 -14 4 -8 12 3 25 9 28 14 8 14 -10 11 -32
-6z"/>
<path d="M5880 1999 c-26 -15 -29 -18 -10 -13 27 7 71 34 55 34 -6 -1 -26 -10
-45 -21z"/>
<path d="M5260 1948 c-41 -11 -136 -30 -210 -43 -80 -13 -119 -23 -95 -24 52
-1 398 68 413 83 10 11 -32 4 -108 -16z"/>
<path d="M5818 1693 c7 -3 16 -2 19 1 4 3 -2 6 -13 5 -11 0 -14 -3 -6 -6z"/>
<path d="M5996 4535 c4 -8 8 -15 10 -15 2 0 4 7 4 15 0 8 -4 15 -10 15 -5 0
-7 -7 -4 -15z"/>
<path d="M6566 4172 c-3 -6 -1 -14 5 -17 15 -10 25 3 12 16 -7 7 -13 7 -17 1z"/>
<path d="M8037 4896 c-3 -23 -9 -49 -12 -57 -5 -12 1 -16 24 -17 17 0 32 5 35
14 3 9 10 12 16 9 23 -14 7 23 -24 57 l-34 36 -5 -42z"/>
<path d="M8032 4798 c-1 -9 -8 -18 -14 -20 -8 -3 -11 -20 -9 -46 2 -32 -1 -42
-12 -42 -9 0 -18 6 -21 13 -3 6 -3 2 0 -10 3 -13 2 -28 -2 -35 -4 -7 -9 -26
-11 -42 -2 -17 -8 -35 -13 -40 -13 -13 -13 -106 0 -106 5 0 12 17 15 38 12 71
36 143 45 137 6 -4 10 -15 10 -26 0 -10 4 -19 9 -19 13 0 18 67 11 145 -4 39
-8 63 -8 53z"/>
<path d="M7922 4560 c0 -14 2 -19 5 -12 2 6 2 18 0 25 -3 6 -5 1 -5 -13z"/>
<path d="M7910 4499 c0 -5 5 -7 10 -4 6 3 10 8 10 11 0 2 -4 4 -10 4 -5 0 -10
-5 -10 -11z"/>
<path d="M7881 4144 c0 -11 3 -14 6 -6 3 7 2 16 -1 19 -3 4 -6 -2 -5 -13z"/>
<path d="M2514 2701 c23 -43 80 -84 106 -76 11 3 20 9 20 13 0 7 -74 58 -118
81 -23 12 -23 12 -8 -18z"/>
<path d="M1857 3534 c-8 -8 1 -24 14 -24 5 0 9 7 9 15 0 15 -12 20 -23 9z"/>
</g>
</svg>
