<?xml version="1.0" encoding="UTF-8"?>
<svg xmlns="http://www.w3.org/2000/svg" xmlns:xlink="http://www.w3.org/1999/xlink" width="100px" height="100px" viewBox="0 0 100 99" version="1.1">
<g id="surface1">
<path style=" stroke:none;fill-rule:nonzero;fill:rgb(0%,0%,0%);fill-opacity:1;" d="M 0.875 49.671875 L 0.875 98.867188 L 99.960938 98.867188 L 99.960938 0.480469 L 0.875 0.480469 Z M 27.464844 14.066406 L 36.925781 14.113281 L 36.957031 17.148438 L 36.976562 20.175781 L 35.714844 20.175781 L 35.714844 34.394531 L 36.78125 34.394531 L 36.78125 52.96875 C 36.78125 63.191406 36.8125 73.105469 36.851562 75.019531 L 36.90625 78.496094 L 30.375 78.496094 L 30.375 55.523438 C 30.375 42.898438 30.335938 32.582031 30.300781 32.609375 C 30.152344 32.695312 28.570312 35.089844 28.125 35.886719 C 25.949219 39.796875 24.824219 43.832031 24.535156 48.828125 C 24.234375 54.023438 25.125 58.820312 27.308594 63.730469 C 27.398438 63.921875 27.4375 64.085938 27.386719 64.085938 C 27.269531 64.085938 22.59375 59.570312 18.488281 55.496094 L 14.800781 51.824219 L 14.828125 32.878906 L 14.847656 13.941406 L 16.429688 13.980469 C 17.292969 14.007812 22.261719 14.046875 27.464844 14.066406 Z M 37.65625 17.148438 C 37.65625 20.109375 37.65625 20.175781 37.460938 20.175781 C 37.277344 20.175781 37.265625 20.109375 37.265625 19.042969 C 37.265625 18.410156 37.296875 17.054688 37.335938 16.015625 C 37.382812 14.527344 37.421875 14.125 37.527344 14.125 C 37.636719 14.125 37.65625 14.679688 37.65625 17.148438 Z M 60.269531 14.757812 C 63.761719 15.765625 65.820312 16.640625 68.273438 18.160156 C 72.894531 21.011719 76.648438 24.578125 79.550781 28.871094 C 82.832031 33.722656 85.210938 39.777344 86.074219 45.445312 C 86.625 49.066406 86.605469 48.578125 86.644531 58.511719 C 86.664062 63.613281 86.65625 72.078125 86.617188 77.316406 L 86.550781 86.855469 L 80.066406 86.855469 C 76.503906 86.855469 73.261719 86.828125 72.863281 86.796875 L 72.136719 86.730469 L 73.410156 85.78125 C 74.105469 85.25 75.214844 84.425781 75.863281 83.933594 C 76.515625 83.453125 77.039062 83.011719 77.019531 82.964844 C 77 82.878906 72.457031 78.804688 71.699219 78.199219 L 71.351562 77.921875 L 70.292969 78.851562 C 69.71875 79.371094 69.195312 79.832031 69.136719 79.890625 C 69.078125 79.9375 68.605469 80.351562 68.082031 80.800781 C 66.90625 81.800781 62.5 85.605469 61.605469 86.386719 L 60.957031 86.953125 L 50.253906 86.933594 L 39.546875 86.902344 L 39.546875 79.0625 L 40.179688 79.023438 C 40.527344 79.015625 41.703125 78.988281 42.800781 78.976562 C 44.46875 78.96875 44.925781 78.996094 45.660156 79.160156 C 46.847656 79.417969 48.144531 79.554688 50.175781 79.621094 C 54.726562 79.773438 59.316406 78.707031 63.617188 76.488281 C 68.332031 74.066406 72.089844 70.703125 75.164062 66.152344 C 79.28125 60.070312 80.976562 51.902344 79.765625 43.90625 C 79.019531 38.960938 77.320312 34.808594 74.503906 31.035156 C 73.097656 29.152344 71.117188 27.085938 69.34375 25.652344 C 64.597656 21.820312 58.066406 19.550781 51.777344 19.5625 C 49.902344 19.570312 48.765625 19.6875 46.777344 20.089844 C 45.757812 20.300781 43.90625 20.332031 40.011719 20.214844 L 37.945312 20.148438 L 37.945312 14.09375 L 48.214844 14.171875 L 58.472656 14.238281 Z M 54.445312 28.160156 C 56.851562 28.738281 59.210938 29.792969 60.878906 31.042969 C 65.75 34.65625 68.730469 39.855469 69.605469 46.214844 C 69.683594 46.78125 69.730469 48.097656 69.71875 49.722656 C 69.71875 51.890625 69.683594 52.527344 69.507812 53.582031 C 69.109375 56.035156 68.496094 57.964844 67.5 60 C 65.867188 63.324219 63.664062 65.804688 60.558594 67.832031 C 55.746094 70.953125 49.882812 71.742188 44.496094 69.992188 C 43.914062 69.800781 43.390625 69.609375 43.351562 69.570312 C 43.3125 69.53125 43.363281 68.042969 43.476562 66.257812 C 43.625 63.816406 43.671875 61.933594 43.671875 58.558594 L 43.671875 54.09375 L 53.941406 54.113281 L 64.199219 54.140625 L 64.1875 48.136719 L 64.167969 42.128906 L 62.761719 42.167969 L 61.34375 42.199219 L 61.285156 41.929688 C 61.074219 40.890625 60.625 39.296875 60.316406 38.480469 C 59.460938 36.191406 57.9375 33.417969 56.570312 31.609375 C 55.695312 30.464844 53.71875 28.246094 53.5625 28.246094 C 53.523438 28.246094 53.4375 28.160156 53.386719 28.066406 C 53.269531 27.851562 53.183594 27.851562 54.445312 28.160156 Z M 39.789062 76.71875 C 39.984375 76.949219 41.003906 77.476562 42.042969 77.871094 C 42.566406 78.074219 42.964844 78.277344 42.933594 78.324219 C 42.90625 78.363281 42.121094 78.402344 41.1875 78.402344 L 39.5 78.402344 L 39.5 77.488281 C 39.5 76.585938 39.558594 76.441406 39.789062 76.71875 Z M 39.789062 76.71875 "/>
<path style=" stroke:none;fill-rule:nonzero;fill:rgb(0%,0%,0%);fill-opacity:1;" d="M 31.355469 20.273438 C 30.007812 20.5625 28.921875 21.914062 28.921875 23.347656 C 28.921875 24.480469 29.601562 25.585938 30.609375 26.113281 C 31.046875 26.34375 31.210938 26.375 32.027344 26.375 C 32.839844 26.375 33.007812 26.34375 33.453125 26.113281 C 34.53125 25.546875 35.0625 24.710938 35.113281 23.492188 C 35.140625 22.875 35.101562 22.609375 34.9375 22.164062 C 34.6875 21.511719 34.027344 20.792969 33.375 20.484375 C 32.871094 20.242188 31.96875 20.148438 31.355469 20.273438 Z M 31.355469 20.273438 "/>
</g>
</svg>
